<svg width="204" height="76" viewBox="0 0 204 76" fill="none" xmlns="http://www.w3.org/2000/svg">
<g clip-path="url(#clip0_861_34)">
<path d="M0 76.0005V0.480469H3.84V76.0005H0ZM7.68 76.0005V0.480469H11.52V76.0005H7.68ZM23.04 76.0005V0.480469H26.88V76.0005H23.04ZM38.4 76.0005V0.480469H42.24V76.0005H38.4ZM53.76 76.0005V0.480469H57.6V76.0005H53.76ZM61.44 76.0005V0.480469H65.28V76.0005H61.44ZM69.12 76.0005V0.480469H80.64V76.0005H69.12ZM84.48 76.0005V0.480469H96V76.0005H84.48ZM99.84 76.0005V0.480469H103.68V76.0005H99.84ZM115.2 76.0005V0.480469H119.04V76.0005H115.2Z" fill="#A154F2"/>
<path d="M84 76.0005V0.480469H87.84V76.0005H84ZM91.68 76.0005V0.480469H95.52V76.0005H91.68ZM107.04 76.0005V0.480469H110.88V76.0005H107.04ZM122.4 76.0005V0.480469H126.24V76.0005H122.4ZM137.76 76.0005V0.480469H141.6V76.0005H137.76ZM145.44 76.0005V0.480469H149.28V76.0005H145.44ZM153.12 76.0005V0.480469H164.64V76.0005H153.12ZM168.48 76.0005V0.480469H180V76.0005H168.48ZM183.84 76.0005V0.480469H187.68V76.0005H183.84ZM199.2 76.0005V0.480469H203.04V76.0005H199.2Z" fill="#5D0BB3"/>
<path d="M32 76.0005V0.480469H35.84V76.0005H32ZM39.68 76.0005V0.480469H43.52V76.0005H39.68ZM55.04 76.0005V0.480469H58.88V76.0005H55.04ZM70.4 76.0005V0.480469H74.24V76.0005H70.4ZM85.76 76.0005V0.480469H89.6V76.0005H85.76ZM93.44 76.0005V0.480469H97.28V76.0005H93.44ZM101.12 76.0005V0.480469H112.64V76.0005H101.12ZM116.48 76.0005V0.480469H128V76.0005H116.48ZM131.84 76.0005V0.480469H135.68V76.0005H131.84ZM147.2 76.0005V0.480469H151.04V76.0005H147.2Z" fill="#7724CF"/>
</g>
<defs>
<clipPath id="clip0_861_34">
<rect width="204" height="76" fill="white"/>
</clipPath>
</defs>
</svg>
