<svg width="406" height="446" viewBox="0 0 406 446" fill="none" xmlns="http://www.w3.org/2000/svg">
<g clip-path="url(#clip0_889_48)">
<path d="M85.9131 444.741H41.9527C40.4672 444.74 39.0431 444.149 37.9927 443.098C36.9424 442.048 36.3516 440.624 36.3499 439.139V347.77C36.3516 346.284 36.9424 344.86 37.9927 343.81C39.0431 342.76 40.4672 342.169 41.9527 342.167H85.9131C87.3985 342.169 88.8226 342.76 89.873 343.81C90.9233 344.86 91.5142 346.284 91.5159 347.77V439.139C91.5142 440.624 90.9233 442.048 89.873 443.098C88.8226 444.149 87.3985 444.74 85.9131 444.741Z" fill="#5A2EB0"/>
<path d="M190.212 445.604H146.251C144.537 445.602 142.894 444.92 141.682 443.708C140.47 442.496 139.788 440.853 139.786 439.139V261.573C139.788 259.859 140.47 258.216 141.682 257.004C142.894 255.792 144.537 255.11 146.251 255.108H190.212C191.926 255.11 193.569 255.792 194.781 257.004C195.993 258.216 196.674 259.859 196.676 261.573V439.139C196.674 440.853 195.993 442.496 194.781 443.708C193.569 444.92 191.926 445.602 190.212 445.604ZM146.251 256.832C144.994 256.834 143.789 257.334 142.9 258.222C142.012 259.111 141.512 260.316 141.51 261.573V439.139C141.512 440.396 142.012 441.601 142.9 442.489C143.789 443.378 144.994 443.878 146.251 443.88H190.212C191.468 443.878 192.673 443.378 193.562 442.489C194.451 441.601 194.951 440.396 194.952 439.139V261.573C194.951 260.316 194.451 259.111 193.562 258.222C192.673 257.334 191.468 256.834 190.212 256.832H146.251Z" fill="#3F3D56"/>
<path d="M294.51 445.603H250.549C248.835 445.602 247.192 444.92 245.98 443.708C244.768 442.496 244.086 440.853 244.084 439.139V148.655C244.086 146.941 244.768 145.298 245.98 144.086C247.192 142.874 248.835 142.192 250.549 142.19H294.51C296.224 142.192 297.867 142.874 299.079 144.086C300.291 145.298 300.973 146.941 300.974 148.655V439.139C300.973 440.853 300.291 442.496 299.079 443.708C297.867 444.92 296.224 445.602 294.51 445.603ZM250.549 143.914C249.292 143.916 248.087 144.416 247.199 145.304C246.31 146.193 245.81 147.398 245.808 148.655V439.139C245.81 440.396 246.31 441.601 247.199 442.489C248.087 443.378 249.292 443.878 250.549 443.88H294.51C295.767 443.878 296.972 443.378 297.86 442.489C298.749 441.601 299.249 440.396 299.25 439.139V148.655C299.249 147.398 298.749 146.193 297.86 145.304C296.972 144.416 295.767 143.916 294.51 143.914H250.549Z" fill="#3F3D56"/>
<path d="M399.781 445.173H355.821C354.336 445.171 352.912 444.581 351.861 443.53C350.811 442.48 350.22 441.056 350.218 439.57V30.135C350.22 28.6496 350.811 27.2255 351.861 26.1751C352.912 25.1248 354.336 24.5339 355.821 24.5322H399.781C401.267 24.5339 402.691 25.1248 403.741 26.1751C404.792 27.2255 405.383 28.6496 405.384 30.135V439.57C405.383 441.056 404.792 442.48 403.741 443.53C402.691 444.581 401.267 445.171 399.781 445.173Z" fill="#5A2EB0"/>
<path d="M126.375 192.294C126.535 191.037 126.417 189.76 126.029 188.554C125.642 187.347 124.995 186.24 124.134 185.311C123.272 184.382 122.217 183.653 121.044 183.175C119.87 182.697 118.606 182.483 117.34 182.547L102.017 154.438L98.5696 166.506L109.067 192.267C109.315 194.386 110.332 196.34 111.925 197.759C113.518 199.179 115.576 199.965 117.709 199.968C119.843 199.972 121.903 199.192 123.5 197.778C125.098 196.364 126.121 194.412 126.375 192.294Z" fill="#E3A5A5"/>
<path d="M8.31738 303.277L16.8517 309.508L44.9476 279.552L32.3508 270.355L8.31738 303.277Z" fill="#E3A5A5"/>
<path d="M27.5263 329.45L0.701904 309.867L8.26819 299.503L24.7287 311.52C27.4774 313.527 29.3163 316.543 29.841 319.906C30.3657 323.268 29.533 326.701 27.5263 329.45Z" fill="#2F2E41"/>
<path d="M53.4714 336.259L64.0392 336.258L69.0662 295.497L53.4697 295.498L53.4714 336.259Z" fill="#E3A5A5"/>
<path d="M84.4202 346.07L51.2079 346.072L51.2073 333.24L71.5876 333.239C74.9908 333.239 78.2548 334.591 80.6613 336.997C83.0679 339.403 84.42 342.667 84.4202 346.07Z" fill="#2F2E41"/>
<path d="M85.2091 177.28C85.2091 177.28 90.3809 227.275 77.4514 261.753L67.9697 327.263H51.5923L53.3163 249.686L47.2825 180.728C47.2825 180.728 59.35 149.697 85.2091 177.28Z" fill="#2F2E41"/>
<path d="M29.1811 180.728L46.4205 240.204L12.8037 293.646L29.6121 307.869L67.9697 247.962L56.7641 174.694L29.1811 180.728Z" fill="#2F2E41"/>
<path d="M73.145 47.3593C84.8373 47.3593 94.3158 37.8808 94.3158 26.1884C94.3158 14.4961 84.8373 5.01758 73.145 5.01758C61.4526 5.01758 51.9741 14.4961 51.9741 26.1884C51.9741 37.8808 61.4526 47.3593 73.145 47.3593Z" fill="#E3A5A5"/>
<path d="M55.4712 55.312C55.4712 55.312 68.4007 46.6923 83.0542 65.6556L86.9331 185.038C86.9331 185.038 75.7275 169.523 52.4543 184.176C29.1811 198.83 24.0093 182.452 24.0093 182.452C24.0093 182.452 7.63194 59.1909 55.4712 55.312Z" fill="#68FFAE"/>
<path d="M82.0112 65.354C85.7298 65.555 89.2428 67.1241 91.8742 69.7592C94.5056 72.3944 96.0697 75.9096 96.2654 79.6285L99.0005 131.596L117.102 180.728L106.758 189.348L73.1414 130.734L66.2588 82.5555C65.9434 80.3473 66.1214 78.0966 66.7801 75.9655C67.4389 73.8344 68.5619 71.8758 70.0684 70.2307C71.5748 68.5857 73.4273 67.295 75.4924 66.4518C77.5574 65.6085 79.7838 65.2336 82.0112 65.354Z" fill="#68FFAE"/>
<path d="M57.589 42.0683C61.0501 45.7551 67.4777 43.7759 67.9286 38.7393C67.964 38.3483 67.9615 37.9547 67.921 37.5642C67.6882 35.3332 66.3992 33.3077 66.708 30.9521C66.7779 30.3658 66.9963 29.8071 67.3426 29.3289C70.1006 25.6357 76.5748 30.9808 79.1777 27.6374C80.7737 25.5874 78.8976 22.3596 80.1224 20.0683C81.7389 17.0442 86.5269 18.536 89.5295 16.8799C92.8703 15.0372 92.6705 9.91149 90.4714 6.79379C87.7894 2.99164 83.0872 0.96278 78.4435 0.670357C73.7999 0.377934 69.1882 1.63325 64.8529 3.32276C59.9271 5.24237 55.0425 7.89535 52.0112 12.2266C48.3249 17.4938 47.9702 24.5751 49.8138 30.7342C50.9353 34.4808 54.7627 39.0577 57.589 42.0683Z" fill="#2F2E41"/>
</g>
<defs>
<clipPath id="clip0_889_48">
<rect width="406" height="446" fill="white"/>
</clipPath>
</defs>
</svg>
