<svg width="72" height="72" viewBox="0 0 72 72" fill="none" xmlns="http://www.w3.org/2000/svg">
<path d="M66.9375 7.875H5.0625C4.01856 7.87615 3.01772 8.29137 2.27954 9.02954C1.54137 9.76772 1.12615 10.7686 1.125 11.8125V51.1875C1.12615 52.2314 1.54137 53.2323 2.27954 53.9705C3.01772 54.7086 4.01856 55.1238 5.0625 55.125H27.5878L26.2378 58.5H20.25C19.9516 58.5 19.6655 58.6185 19.4545 58.8295C19.2435 59.0405 19.125 59.3266 19.125 59.625V61.875H12.375C12.0766 61.875 11.7905 61.9935 11.5795 62.2045C11.3685 62.4155 11.25 62.7016 11.25 63C11.25 63.2984 11.3685 63.5845 11.5795 63.7955C11.7905 64.0065 12.0766 64.125 12.375 64.125H59.625C59.9234 64.125 60.2095 64.0065 60.4205 63.7955C60.6315 63.5845 60.75 63.2984 60.75 63C60.75 62.7016 60.6315 62.4155 60.4205 62.2045C60.2095 61.9935 59.9234 61.875 59.625 61.875H52.875V59.625C52.875 59.3266 52.7565 59.0405 52.5455 58.8295C52.3345 58.6185 52.0484 58.5 51.75 58.5H45.7622L44.4122 55.125H66.9375C67.9814 55.1238 68.9823 54.7086 69.7205 53.9705C70.4586 53.2323 70.8738 52.2314 70.875 51.1875V11.8125C70.8738 10.7686 70.4586 9.76772 69.7205 9.02954C68.9823 8.29137 67.9814 7.87615 66.9375 7.875V7.875ZM50.625 60.75V61.875H21.375V60.75H50.625ZM28.6622 58.5L30.0122 55.125H41.9878L43.3378 58.5H28.6622ZM68.625 51.1875C68.6246 51.6349 68.4467 52.0639 68.1303 52.3803C67.8139 52.6967 67.3849 52.8746 66.9375 52.875H5.0625C4.61506 52.8746 4.18606 52.6967 3.86967 52.3803C3.55328 52.0639 3.37537 51.6349 3.375 51.1875V48.375H68.625V51.1875ZM68.625 46.125H3.375V11.8125C3.37537 11.3651 3.55328 10.9361 3.86967 10.6197C4.18606 10.3033 4.61506 10.1254 5.0625 10.125H66.9375C67.3849 10.1254 67.8139 10.3033 68.1303 10.6197C68.4467 10.9361 68.6246 11.3651 68.625 11.8125V46.125Z" fill="rgb(52, 196, 124)"/>
<path d="M30.8828 36.9408C31.0063 37.0219 31.1446 37.0778 31.2898 37.1054C31.4349 37.133 31.5841 37.1318 31.7287 37.1017C31.8734 37.0717 32.0107 37.0135 32.1329 36.9304C32.255 36.8472 32.3596 36.7409 32.4406 36.6174L41.3 23.1174C41.4638 22.8679 41.5217 22.5637 41.4611 22.2715C41.4005 21.9794 41.2263 21.7232 40.9769 21.5595C40.7274 21.3958 40.4232 21.3379 40.131 21.3985C39.8389 21.4591 39.5828 21.6332 39.419 21.8827L30.5596 35.3827C30.4785 35.5062 30.4225 35.6445 30.3949 35.7896C30.3672 35.9348 30.3684 36.084 30.3984 36.2287C30.4285 36.3734 30.4867 36.5107 30.5698 36.6329C30.6529 36.7551 30.7593 36.8597 30.8828 36.9408Z" fill="rgb(52, 196, 124)"/>
<path d="M43.155 36.8643C43.3842 37.0553 43.68 37.1474 43.9771 37.1204C44.2742 37.0933 44.5484 36.9494 44.7394 36.7202L50.3644 29.9701C50.5329 29.768 50.6251 29.5132 50.6251 29.25C50.6251 28.9869 50.5329 28.732 50.3644 28.5299L44.7394 21.7799C44.6452 21.6654 44.5292 21.5707 44.3982 21.5013C44.2672 21.4318 44.1238 21.3889 43.9762 21.375C43.8286 21.3612 43.6797 21.3767 43.538 21.4206C43.3964 21.4644 43.2649 21.5359 43.1509 21.6308C43.037 21.7257 42.943 21.8422 42.8743 21.9736C42.8055 22.105 42.7635 22.2487 42.7504 22.3964C42.7374 22.5441 42.7537 22.6929 42.7984 22.8342C42.8431 22.9756 42.9153 23.1068 43.0109 23.2201L48.0357 29.25L43.0109 35.2799C42.8199 35.5091 42.7278 35.8048 42.7548 36.1019C42.7818 36.3991 42.9258 36.6733 43.155 36.8643V36.8643Z" fill="rgb(52, 196, 124)"/>
<path d="M27.2607 36.7201C27.355 36.8346 27.4709 36.9293 27.6019 36.9987C27.7329 37.0682 27.8763 37.1111 28.024 37.125C28.1716 37.1388 28.3205 37.1233 28.4621 37.0794C28.6037 37.0356 28.7353 36.9641 28.8492 36.8692C28.9631 36.7743 29.0571 36.6578 29.1259 36.5264C29.1946 36.395 29.2367 36.2513 29.2497 36.1036C29.2627 35.9559 29.2464 35.8071 29.2017 35.6658C29.157 35.5244 29.0848 35.3932 28.9893 35.2799L23.9644 29.25L28.9893 23.2201C29.0848 23.1068 29.157 22.9756 29.2017 22.8342C29.2464 22.6929 29.2627 22.5441 29.2497 22.3964C29.2367 22.2487 29.1946 22.105 29.1259 21.9736C29.0571 21.8422 28.9631 21.7257 28.8492 21.6308C28.7353 21.5359 28.6037 21.4644 28.4621 21.4206C28.3205 21.3767 28.1716 21.3612 28.024 21.375C27.8763 21.3889 27.7329 21.4318 27.6019 21.5013C27.4709 21.5707 27.355 21.6654 27.2607 21.7799L21.6357 28.5299C21.4672 28.732 21.375 28.9869 21.375 29.25C21.375 29.5131 21.4672 29.768 21.6357 29.9701L27.2607 36.7201Z" fill="rgb(52, 196, 124)"/>
</svg>
