<svg width="72" height="72" viewBox="0 0 72 72" fill="none" xmlns="http://www.w3.org/2000/svg">
<path d="M63.0289 55.1963C67.3206 51.3713 69.7507 46.2729 69.7507 40.9822C69.7507 35.3595 67.1185 30.1009 62.3388 26.1744C57.6869 22.3542 51.5295 20.25 45 20.25C38.4705 20.25 32.3131 22.3542 27.6619 26.1747C22.8822 30.1009 20.25 35.3595 20.25 40.9822C20.25 46.605 22.8822 51.8635 27.6619 55.79C32.3131 59.6105 38.4705 61.7145 45 61.7145C45.8701 61.7145 46.7455 61.6762 47.6135 61.5998L49.0966 62.8852C54.2057 67.3125 60.7395 69.7497 67.5 69.75H69.75V64.9607L69.0911 64.3019C66.4915 61.6947 64.4315 58.6004 63.0289 55.1963V55.1963ZM52.0438 59.4844L49.068 56.9052L48.0758 57.0268C47.0553 57.1516 46.0281 57.2142 45 57.2143C33.8344 57.2143 24.75 49.9326 24.75 40.9822C24.75 32.0318 33.8344 24.75 45 24.75C56.1657 24.75 65.25 32.0317 65.25 40.9822C65.25 45.4414 63.0253 49.6045 58.9857 52.7044L57.6899 53.6988L58.2878 55.3912C59.5132 58.8477 61.3143 62.0721 63.615 64.928C59.3305 64.2128 55.3264 62.3291 52.0438 59.4844V59.4844Z" fill="#FFF"/>
<path d="M8.46352 44.6451C10.5697 41.979 12.2234 38.9849 13.3584 35.7825L13.9518 34.0985L12.6571 33.1048C8.84784 30.1818 6.75 26.2586 6.75 22.058C6.75 13.6171 15.3294 6.75 25.875 6.75C33.633 6.75 40.3266 10.4667 43.3233 15.7922C43.8798 15.7652 44.4386 15.75 45 15.75C46.1275 15.75 47.2448 15.8047 48.3517 15.9141C47.1936 12.9139 45.1824 10.1751 42.4173 7.90397C37.9789 4.25798 32.1047 2.25 25.875 2.25C19.6453 2.25 13.7711 4.25798 9.33244 7.90397C4.76522 11.6557 2.25 16.6823 2.25 22.058C2.25 27.0924 4.5495 31.9433 8.61328 35.5922C7.2871 38.7837 5.34931 41.6848 2.90911 44.1322L2.25 44.7912V49.5H4.5C8.66068 49.4995 12.7641 48.5306 16.4856 46.6699C16.0775 45.1232 15.8384 43.5368 15.7725 41.9386C13.5137 43.2624 11.0397 44.1785 8.46352 44.6451V44.6451Z" fill="#FFF"/>
</svg>
