<svg width="200" height="200" viewBox="0 0 200 200" fill="none" xmlns="http://www.w3.org/2000/svg">
<g clip-path="url(#clip0_838_93)">
<mask id="mask0_838_93" style="mask-type:luminance" maskUnits="userSpaceOnUse" x="0" y="0" width="200" height="200">
<path d="M200 0H0V200H200V0Z" fill="white"/>
</mask>
<g mask="url(#mask0_838_93)">
<path d="M78.05 89.0167C85.8692 102.754 97.2458 114.131 110.983 121.95L118.35 111.633C119.535 109.974 121.287 108.807 123.273 108.352C125.261 107.898 127.345 108.188 129.133 109.167C140.919 115.607 153.935 119.482 167.325 120.533C169.415 120.699 171.365 121.646 172.788 123.186C174.21 124.726 175 126.745 175 128.842V166.025C175.001 168.088 174.236 170.078 172.853 171.61C171.471 173.142 169.569 174.106 167.517 174.317C163.1 174.775 158.65 175 154.167 175C82.8333 175 25 117.167 25 45.8333C25 41.35 25.225 36.9 25.6833 32.4833C25.8938 30.4308 26.8582 28.5293 28.3899 27.1469C29.9217 25.7646 31.9118 24.9996 33.975 25H71.1583C73.2547 24.9998 75.2742 25.7896 76.814 27.2121C78.3539 28.6346 79.3011 30.5852 79.4667 32.675C80.5185 46.0649 84.3925 59.0807 90.8333 70.8667C91.8125 72.6547 92.1017 74.7395 91.6475 76.7267C91.1925 78.7137 90.0258 80.4653 88.3667 81.65L78.05 89.0167ZM57.0333 83.5417L72.8667 72.2333C68.3732 62.5341 65.2946 52.2403 63.725 41.6667H41.75C41.7 43.05 41.675 44.4417 41.675 45.8333C41.6667 107.967 92.0333 158.333 154.167 158.333C155.558 158.333 156.95 158.308 158.333 158.25V136.275C147.76 134.705 137.466 131.627 127.767 127.133L116.458 142.967C111.906 141.197 107.483 139.109 103.225 136.717L102.742 136.442C86.3967 127.139 72.8607 113.603 63.5583 97.2583L63.2833 96.775C60.8909 92.5167 58.8023 88.0942 57.0333 83.5417Z" fill="white"/>
</g>
</g>
<defs>
<clipPath id="clip0_838_93">
<rect width="200" height="200" fill="white"/>
</clipPath>
</defs>
</svg>
