<svg width="795" height="600" viewBox="0 0 795 600" fill="none" xmlns="http://www.w3.org/2000/svg">
<g clip-path="url(#clip0_1011_604)">
<g filter="url(#filter0_d_1011_604)">
<path d="M391.787 95.8189C281.073 162.113 252.891 188.127 197.735 129.385C142.579 70.644 64.4745 63.0912 67.2927 162.113C70.1109 261.134 2.07175 261.134 27.838 393.722C53.6044 526.309 148.215 573.722 219.072 570.785C289.93 567.847 296.774 374.421 408.697 445.33C520.619 516.239 543.164 625.331 670.788 594.701C798.412 564.071 783.919 426.029 742.853 345.05C701.788 264.071 520.216 284.211 510.554 214.98C500.891 145.749 537.528 115.119 543.164 70.644C548.8 26.1687 502.502 29.5251 391.787 95.8189Z" fill="#5A2EB0"/>
</g>
<mask id="mask0_1011_604" style="mask-type:luminance" maskUnits="userSpaceOnUse" x="4" y="0" width="787" height="573">
<path d="M790.82 0H4V572.258H790.82V0Z" fill="white"/>
</mask>
<g mask="url(#mask0_1011_604)">
<g filter="url(#filter1_d_1011_604)">
<path d="M4 434.291C12.6873 444.585 22.0835 454.258 32.12 463.241L762.7 464.241C772.736 455.258 782.133 445.585 790.82 435.291L4 434.291Z" fill="#585062"/>
<path d="M499.43 341.591V427.295C499.431 428.387 499.865 429.434 500.637 430.207C501.409 430.979 502.457 431.413 503.549 431.414H630.553C631.645 431.413 632.693 430.979 633.465 430.207C634.237 429.434 634.671 428.387 634.672 427.295V341.591C634.67 340.5 634.235 339.454 633.463 338.683C632.691 337.912 631.644 337.478 630.553 337.477H503.549C502.457 337.478 501.411 337.912 500.639 338.683C499.867 339.454 499.432 340.5 499.43 341.591Z" fill="#3F3D56"/>
<path d="M502.41 342.658V426.239C502.411 426.822 502.643 427.381 503.056 427.794C503.469 428.207 504.028 428.439 504.612 428.44H629.497C630.081 428.439 630.64 428.207 631.053 427.794C631.465 427.381 631.697 426.822 631.698 426.239V342.658C631.698 342.074 631.467 341.514 631.054 341.1C630.641 340.686 630.081 340.453 629.497 340.452H504.612C504.027 340.453 503.467 340.686 503.055 341.1C502.642 341.514 502.41 342.074 502.41 342.658Z" fill="#645184"/>
<path d="M496.774 444.01C497.006 444.301 497.302 444.536 497.639 444.698C497.975 444.859 498.344 444.941 498.717 444.939H634.709C635.081 444.939 635.448 444.856 635.784 444.695C636.119 444.535 636.415 444.302 636.649 444.013C636.884 443.725 637.051 443.387 637.138 443.026C637.226 442.664 637.231 442.288 637.155 441.924L635.044 431.896C634.957 431.488 634.768 431.107 634.496 430.789C634.224 430.472 633.877 430.228 633.486 430.079C633.203 429.968 632.902 429.911 632.598 429.911H500.82C500.516 429.911 500.215 429.968 499.932 430.079C499.541 430.228 499.194 430.472 498.922 430.789C498.649 431.107 498.461 431.488 498.374 431.896L496.263 441.924C496.187 442.288 496.194 442.663 496.283 443.024C496.371 443.385 496.539 443.722 496.774 444.01Z" fill="#2C2C2D"/>
<path d="M627.934 434.23H631.146C631.415 434.23 631.634 434.012 631.634 433.742V432.206C631.634 431.936 631.415 431.717 631.146 431.717H627.934C627.664 431.717 627.445 431.936 627.445 432.206V433.742C627.445 434.012 627.664 434.23 627.934 434.23Z" fill="#3F3D56"/>
<path d="M619.555 434.23H622.767C623.036 434.23 623.255 434.012 623.255 433.742V432.206C623.255 431.936 623.036 431.717 622.767 431.717H619.555C619.285 431.717 619.066 431.936 619.066 432.206V433.742C619.066 434.012 619.285 434.23 619.555 434.23Z" fill="#3F3D56"/>
<path d="M611.18 434.23H614.392C614.661 434.23 614.88 434.012 614.88 433.742V432.206C614.88 431.936 614.661 431.717 614.392 431.717H611.18C610.91 431.717 610.691 431.936 610.691 432.206V433.742C610.691 434.012 610.91 434.23 611.18 434.23Z" fill="#3F3D56"/>
<path d="M602.8 434.23H606.013C606.282 434.23 606.5 434.012 606.5 433.742V432.206C606.5 431.936 606.282 431.717 606.013 431.717H602.8C602.53 431.717 602.312 431.936 602.312 432.206V433.742C602.312 434.012 602.53 434.23 602.8 434.23Z" fill="#3F3D56"/>
<path d="M594.425 434.23H597.638C597.907 434.23 598.125 434.012 598.125 433.742V432.206C598.125 431.936 597.907 431.717 597.638 431.717H594.425C594.155 431.717 593.938 431.936 593.938 432.206V433.742C593.938 434.012 594.155 434.23 594.425 434.23Z" fill="#3F3D56"/>
<path d="M586.047 434.23H589.259C589.528 434.23 589.747 434.012 589.747 433.742V432.206C589.747 431.936 589.528 431.717 589.259 431.717H586.047C585.777 431.717 585.559 431.936 585.559 432.206V433.742C585.559 434.012 585.777 434.23 586.047 434.23Z" fill="#3F3D56"/>
<path d="M577.672 434.23H580.884C581.154 434.23 581.372 434.012 581.372 433.742V432.206C581.372 431.936 581.154 431.717 580.884 431.717H577.672C577.402 431.717 577.184 431.936 577.184 432.206V433.742C577.184 434.012 577.402 434.23 577.672 434.23Z" fill="#3F3D56"/>
<path d="M569.293 434.23H572.505C572.775 434.23 572.993 434.012 572.993 433.742V432.206C572.993 431.936 572.775 431.717 572.505 431.717H569.293C569.023 431.717 568.805 431.936 568.805 432.206V433.742C568.805 434.012 569.023 434.23 569.293 434.23Z" fill="#3F3D56"/>
<path d="M560.918 434.23H564.13C564.4 434.23 564.618 434.012 564.618 433.742V432.206C564.618 431.936 564.4 431.717 564.13 431.717H560.918C560.648 431.717 560.43 431.936 560.43 432.206V433.742C560.43 434.012 560.648 434.23 560.918 434.23Z" fill="#3F3D56"/>
<path d="M552.539 434.23H555.751C556.021 434.23 556.239 434.012 556.239 433.742V432.206C556.239 431.936 556.021 431.717 555.751 431.717H552.539C552.269 431.717 552.051 431.936 552.051 432.206V433.742C552.051 434.012 552.269 434.23 552.539 434.23Z" fill="#3F3D56"/>
<path d="M544.164 434.23H547.376C547.646 434.23 547.864 434.012 547.864 433.742V432.206C547.864 431.936 547.646 431.717 547.376 431.717H544.164C543.894 431.717 543.676 431.936 543.676 432.206V433.742C543.676 434.012 543.894 434.23 544.164 434.23Z" fill="#3F3D56"/>
<path d="M535.785 434.23H538.997C539.267 434.23 539.485 434.012 539.485 433.742V432.206C539.485 431.936 539.267 431.717 538.997 431.717H535.785C535.515 431.717 535.297 431.936 535.297 432.206V433.742C535.297 434.012 535.515 434.23 535.785 434.23Z" fill="#3F3D56"/>
<path d="M527.41 434.23H530.622C530.892 434.23 531.11 434.012 531.11 433.742V432.206C531.11 431.936 530.892 431.717 530.622 431.717H527.41C527.14 431.717 526.922 431.936 526.922 432.206V433.742C526.922 434.012 527.14 434.23 527.41 434.23Z" fill="#3F3D56"/>
<path d="M519.031 434.23H522.243C522.513 434.23 522.731 434.012 522.731 433.742V432.206C522.731 431.936 522.513 431.717 522.243 431.717H519.031C518.762 431.717 518.543 431.936 518.543 432.206V433.742C518.543 434.012 518.762 434.23 519.031 434.23Z" fill="#3F3D56"/>
<path d="M510.656 434.23H513.868C514.138 434.23 514.356 434.012 514.356 433.742V432.206C514.356 431.936 514.138 431.717 513.868 431.717H510.656C510.387 431.717 510.168 431.936 510.168 432.206V433.742C510.168 434.012 510.387 434.23 510.656 434.23Z" fill="#3F3D56"/>
<path d="M502.277 434.23H505.489C505.759 434.23 505.978 434.012 505.978 433.742V432.206C505.978 431.936 505.759 431.717 505.489 431.717H502.277C502.008 431.717 501.789 431.936 501.789 432.206V433.742C501.789 434.012 502.008 434.23 502.277 434.23Z" fill="#3F3D56"/>
<path d="M628.031 438.418H631.243C631.513 438.418 631.731 438.199 631.731 437.93V436.393C631.731 436.123 631.513 435.905 631.243 435.905H628.031C627.762 435.905 627.543 436.123 627.543 436.393V437.93C627.543 438.199 627.762 438.418 628.031 438.418Z" fill="#3F3D56"/>
<path d="M619.656 438.418H622.868C623.138 438.418 623.356 438.199 623.356 437.93V436.393C623.356 436.123 623.138 435.905 622.868 435.905H619.656C619.387 435.905 619.168 436.123 619.168 436.393V437.93C619.168 438.199 619.387 438.418 619.656 438.418Z" fill="#3F3D56"/>
<path d="M611.277 438.418H614.489C614.759 438.418 614.978 438.199 614.978 437.93V436.393C614.978 436.123 614.759 435.905 614.489 435.905H611.277C611.008 435.905 610.789 436.123 610.789 436.393V437.93C610.789 438.199 611.008 438.418 611.277 438.418Z" fill="#3F3D56"/>
<path d="M602.902 438.418H606.114C606.384 438.418 606.603 438.199 606.603 437.93V436.393C606.603 436.123 606.384 435.905 606.114 435.905H602.902C602.633 435.905 602.414 436.123 602.414 436.393V437.93C602.414 438.199 602.633 438.418 602.902 438.418Z" fill="#3F3D56"/>
<path d="M594.523 438.418H597.735C598.005 438.418 598.224 438.199 598.224 437.93V436.393C598.224 436.123 598.005 435.905 597.735 435.905H594.523C594.254 435.905 594.035 436.123 594.035 436.393V437.93C594.035 438.199 594.254 438.418 594.523 438.418Z" fill="#3F3D56"/>
<path d="M586.148 438.418H589.36C589.63 438.418 589.849 438.199 589.849 437.93V436.393C589.849 436.123 589.63 435.905 589.36 435.905H586.148C585.879 435.905 585.66 436.123 585.66 436.393V437.93C585.66 438.199 585.879 438.418 586.148 438.418Z" fill="#3F3D56"/>
<path d="M577.769 438.418H580.982C581.251 438.418 581.47 438.199 581.47 437.93V436.393C581.47 436.123 581.251 435.905 580.982 435.905H577.769C577.5 435.905 577.281 436.123 577.281 436.393V437.93C577.281 438.199 577.5 438.418 577.769 438.418Z" fill="#3F3D56"/>
<path d="M569.394 438.418H572.607C572.876 438.418 573.095 438.199 573.095 437.93V436.393C573.095 436.123 572.876 435.905 572.607 435.905H569.394C569.125 435.905 568.906 436.123 568.906 436.393V437.93C568.906 438.199 569.125 438.418 569.394 438.418Z" fill="#3F3D56"/>
<path d="M561.016 438.418H564.228C564.497 438.418 564.716 438.199 564.716 437.93V436.393C564.716 436.123 564.497 435.905 564.228 435.905H561.016C560.746 435.905 560.527 436.123 560.527 436.393V437.93C560.527 438.199 560.746 438.418 561.016 438.418Z" fill="#3F3D56"/>
<path d="M552.641 438.418H555.853C556.122 438.418 556.341 438.199 556.341 437.93V436.393C556.341 436.123 556.122 435.905 555.853 435.905H552.641C552.371 435.905 552.152 436.123 552.152 436.393V437.93C552.152 438.199 552.371 438.418 552.641 438.418Z" fill="#3F3D56"/>
<path d="M544.262 438.418H547.474C547.743 438.418 547.962 438.199 547.962 437.93V436.393C547.962 436.123 547.743 435.905 547.474 435.905H544.262C543.992 435.905 543.773 436.123 543.773 436.393V437.93C543.773 438.199 543.992 438.418 544.262 438.418Z" fill="#3F3D56"/>
<path d="M535.887 438.418H539.099C539.368 438.418 539.587 438.199 539.587 437.93V436.393C539.587 436.123 539.368 435.905 539.099 435.905H535.887C535.617 435.905 535.398 436.123 535.398 436.393V437.93C535.398 438.199 535.617 438.418 535.887 438.418Z" fill="#3F3D56"/>
<path d="M527.508 438.418H530.72C530.989 438.418 531.208 438.199 531.208 437.93V436.393C531.208 436.123 530.989 435.905 530.72 435.905H527.508C527.238 435.905 527.02 436.123 527.02 436.393V437.93C527.02 438.199 527.238 438.418 527.508 438.418Z" fill="#3F3D56"/>
<path d="M519.133 438.418H522.345C522.614 438.418 522.833 438.199 522.833 437.93V436.393C522.833 436.123 522.614 435.905 522.345 435.905H519.133C518.863 435.905 518.645 436.123 518.645 436.393V437.93C518.645 438.199 518.863 438.418 519.133 438.418Z" fill="#3F3D56"/>
<path d="M510.754 438.418H513.966C514.236 438.418 514.454 438.199 514.454 437.93V436.393C514.454 436.123 514.236 435.905 513.966 435.905H510.754C510.484 435.905 510.266 436.123 510.266 436.393V437.93C510.266 438.199 510.484 438.418 510.754 438.418Z" fill="#3F3D56"/>
<path d="M502.379 438.418H505.591C505.861 438.418 506.079 438.199 506.079 437.93V436.393C506.079 436.123 505.861 435.905 505.591 435.905H502.379C502.109 435.905 501.891 436.123 501.891 436.393V437.93C501.891 438.199 502.109 438.418 502.379 438.418Z" fill="#3F3D56"/>
<path d="M558.504 443.445H591.035C591.305 443.445 591.523 443.227 591.523 442.957V441.42C591.523 441.151 591.305 440.932 591.035 440.932H558.504C558.234 440.932 558.016 441.151 558.016 441.42V442.957C558.016 443.227 558.234 443.445 558.504 443.445Z" fill="#3F3D56"/>
<path d="M524.038 358.736H521.194C520.332 358.736 519.633 359.435 519.633 360.297C519.633 361.16 520.332 361.858 521.194 361.858H524.038C524.9 361.858 525.599 361.16 525.599 360.297C525.599 359.435 524.9 358.736 524.038 358.736Z" fill="white"/>
<path d="M556.557 358.736H553.713C552.851 358.736 552.152 359.435 552.152 360.297C552.152 361.16 552.851 361.858 553.713 361.858H556.557C557.419 361.858 558.118 361.16 558.118 360.297C558.118 359.435 557.419 358.736 556.557 358.736Z" fill="white"/>
<path d="M565.772 358.736H562.928C562.066 358.736 561.367 359.435 561.367 360.297C561.367 361.16 562.066 361.858 562.928 361.858H565.772C566.634 361.858 567.333 361.16 567.333 360.297C567.333 359.435 566.634 358.736 565.772 358.736Z" fill="white"/>
<path d="M547.712 358.477H530.038C529.175 358.477 528.477 359.175 528.477 360.038C528.477 360.9 529.175 361.599 530.038 361.599H547.712C548.574 361.599 549.273 360.9 549.273 360.038C549.273 359.175 548.574 358.477 547.712 358.477Z" fill="white"/>
<path d="M591.075 358.477H573.401C572.539 358.477 571.84 359.175 571.84 360.038C571.84 360.9 572.539 361.599 573.401 361.599H591.075C591.937 361.599 592.636 360.9 592.636 360.038C592.636 359.175 591.937 358.477 591.075 358.477Z" fill="white"/>
<path d="M532.709 365.784H529.866C529.004 365.784 528.305 366.483 528.305 367.345C528.305 368.207 529.004 368.906 529.866 368.906H532.709C533.572 368.906 534.271 368.207 534.271 367.345C534.271 366.483 533.572 365.784 532.709 365.784Z" fill="white"/>
<path d="M565.233 365.784H562.389C561.527 365.784 560.828 366.483 560.828 367.345C560.828 368.207 561.527 368.906 562.389 368.906H565.233C566.095 368.906 566.794 368.207 566.794 367.345C566.794 366.483 566.095 365.784 565.233 365.784Z" fill="white"/>
<path d="M574.448 365.784H571.604C570.742 365.784 570.043 366.483 570.043 367.345C570.043 368.207 570.742 368.906 571.604 368.906H574.448C575.31 368.906 576.009 368.207 576.009 367.345C576.009 366.483 575.31 365.784 574.448 365.784Z" fill="white"/>
<path d="M556.383 365.522H538.71C537.847 365.522 537.148 366.221 537.148 367.084C537.148 367.946 537.847 368.645 538.71 368.645H556.383C557.246 368.645 557.945 367.946 557.945 367.084C557.945 366.221 557.246 365.522 556.383 365.522Z" fill="white"/>
<path d="M599.751 365.522H582.077C581.215 365.522 580.516 366.221 580.516 367.084C580.516 367.946 581.215 368.645 582.077 368.645H599.751C600.613 368.645 601.312 367.946 601.312 367.084C601.312 366.221 600.613 365.522 599.751 365.522Z" fill="white"/>
<path d="M541.381 372.83H538.538C537.675 372.83 536.977 373.529 536.977 374.391C536.977 375.253 537.675 375.952 538.538 375.952H541.381C542.243 375.952 542.942 375.253 542.942 374.391C542.942 373.529 542.243 372.83 541.381 372.83Z" fill="white"/>
<path d="M573.905 372.83H571.061C570.199 372.83 569.5 373.529 569.5 374.391C569.5 375.253 570.199 375.952 571.061 375.952H573.905C574.767 375.952 575.466 375.253 575.466 374.391C575.466 373.529 574.767 372.83 573.905 372.83Z" fill="white"/>
<path d="M583.12 372.83H580.276C579.414 372.83 578.715 373.529 578.715 374.391C578.715 375.253 579.414 375.952 580.276 375.952H583.12C583.982 375.952 584.681 375.253 584.681 374.391C584.681 373.529 583.982 372.83 583.12 372.83Z" fill="white"/>
<path d="M565.059 372.569H547.385C546.523 372.569 545.824 373.268 545.824 374.13C545.824 374.993 546.523 375.691 547.385 375.691H565.059C565.921 375.691 566.62 374.993 566.62 374.13C566.62 373.268 565.921 372.569 565.059 372.569Z" fill="white"/>
<path d="M608.422 372.569H590.749C589.886 372.569 589.188 373.268 589.188 374.13C589.188 374.993 589.886 375.691 590.749 375.691H608.422C609.284 375.691 609.984 374.993 609.984 374.13C609.984 373.268 609.284 372.569 608.422 372.569Z" fill="white"/>
<path d="M550.053 379.877H547.21C546.347 379.877 545.648 380.576 545.648 381.438C545.648 382.3 546.347 382.999 547.21 382.999H550.053C550.915 382.999 551.614 382.3 551.614 381.438C551.614 380.576 550.915 379.877 550.053 379.877Z" fill="white"/>
<path d="M582.577 379.877H579.733C578.871 379.877 578.172 380.576 578.172 381.438C578.172 382.3 578.871 382.999 579.733 382.999H582.577C583.439 382.999 584.138 382.3 584.138 381.438C584.138 380.576 583.439 379.877 582.577 379.877Z" fill="white"/>
<path d="M591.792 379.877H588.948C588.086 379.877 587.387 380.576 587.387 381.438C587.387 382.3 588.086 382.999 588.948 382.999H591.792C592.654 382.999 593.353 382.3 593.353 381.438C593.353 380.576 592.654 379.877 591.792 379.877Z" fill="white"/>
<path d="M573.731 379.617H556.057C555.195 379.617 554.496 380.316 554.496 381.178C554.496 382.04 555.195 382.739 556.057 382.739H573.731C574.593 382.739 575.292 382.04 575.292 381.178C575.292 380.316 574.593 379.617 573.731 379.617Z" fill="white"/>
<path d="M556.557 407.896H553.713C552.851 407.896 552.152 408.595 552.152 409.458C552.152 410.32 552.851 411.019 553.713 411.019H556.557C557.419 411.019 558.118 410.32 558.118 409.458C558.118 408.595 557.419 407.896 556.557 407.896Z" fill="white"/>
<path d="M565.772 407.896H562.928C562.066 407.896 561.367 408.595 561.367 409.458C561.367 410.32 562.066 411.019 562.928 411.019H565.772C566.634 411.019 567.333 410.32 567.333 409.458C567.333 408.595 566.634 407.896 565.772 407.896Z" fill="white"/>
<path d="M591.075 408.157H573.401C572.539 408.157 571.84 408.856 571.84 409.718C571.84 410.58 572.539 411.279 573.401 411.279H591.075C591.937 411.279 592.636 410.58 592.636 409.718C592.636 408.856 591.937 408.157 591.075 408.157Z" fill="white"/>
<path d="M524.038 407.896H521.194C520.332 407.896 519.633 408.595 519.633 409.458C519.633 410.32 520.332 411.019 521.194 411.019H524.038C524.9 411.019 525.599 410.32 525.599 409.458C525.599 408.595 524.9 407.896 524.038 407.896Z" fill="white"/>
<path d="M547.712 408.157H530.038C529.175 408.157 528.477 408.856 528.477 409.718C528.477 410.58 529.175 411.279 530.038 411.279H547.712C548.574 411.279 549.273 410.58 549.273 409.718C549.273 408.856 548.574 408.157 547.712 408.157Z" fill="white"/>
<path d="M532.709 400.851H529.866C529.004 400.851 528.305 401.549 528.305 402.412C528.305 403.274 529.004 403.973 529.866 403.973H532.709C533.572 403.973 534.271 403.274 534.271 402.412C534.271 401.549 533.572 400.851 532.709 400.851Z" fill="white"/>
<path d="M565.233 400.851H562.389C561.527 400.851 560.828 401.549 560.828 402.412C560.828 403.274 561.527 403.973 562.389 403.973H565.233C566.095 403.973 566.794 403.274 566.794 402.412C566.794 401.549 566.095 400.851 565.233 400.851Z" fill="white"/>
<path d="M574.448 400.851H571.604C570.742 400.851 570.043 401.549 570.043 402.412C570.043 403.274 570.742 403.973 571.604 403.973H574.448C575.31 403.973 576.009 403.274 576.009 402.412C576.009 401.549 575.31 400.851 574.448 400.851Z" fill="white"/>
<path d="M556.383 401.11H538.71C537.847 401.11 537.148 401.809 537.148 402.671C537.148 403.534 537.847 404.232 538.71 404.232H556.383C557.246 404.232 557.945 403.534 557.945 402.671C557.945 401.809 557.246 401.11 556.383 401.11Z" fill="white"/>
<path d="M541.381 393.805H538.538C537.675 393.805 536.977 394.504 536.977 395.366C536.977 396.228 537.675 396.927 538.538 396.927H541.381C542.243 396.927 542.942 396.228 542.942 395.366C542.942 394.504 542.243 393.805 541.381 393.805Z" fill="white"/>
<path d="M573.905 393.805H571.061C570.199 393.805 569.5 394.504 569.5 395.366C569.5 396.228 570.199 396.927 571.061 396.927H573.905C574.767 396.927 575.466 396.228 575.466 395.366C575.466 394.504 574.767 393.805 573.905 393.805Z" fill="white"/>
<path d="M583.12 393.805H580.276C579.414 393.805 578.715 394.504 578.715 395.366C578.715 396.228 579.414 396.927 580.276 396.927H583.12C583.982 396.927 584.681 396.228 584.681 395.366C584.681 394.504 583.982 393.805 583.12 393.805Z" fill="white"/>
<path d="M565.059 394.063H547.385C546.523 394.063 545.824 394.762 545.824 395.625C545.824 396.487 546.523 397.186 547.385 397.186H565.059C565.921 397.186 566.62 396.487 566.62 395.625C566.62 394.762 565.921 394.063 565.059 394.063Z" fill="white"/>
<path d="M550.053 386.758H547.21C546.347 386.758 545.648 387.457 545.648 388.319C545.648 389.181 546.347 389.88 547.21 389.88H550.053C550.915 389.88 551.614 389.181 551.614 388.319C551.614 387.457 550.915 386.758 550.053 386.758Z" fill="white"/>
<path d="M582.577 386.758H579.733C578.871 386.758 578.172 387.457 578.172 388.319C578.172 389.181 578.871 389.88 579.733 389.88H582.577C583.439 389.88 584.138 389.181 584.138 388.319C584.138 387.457 583.439 386.758 582.577 386.758Z" fill="white"/>
<path d="M591.792 386.758H588.948C588.086 386.758 587.387 387.457 587.387 388.319C587.387 389.181 588.086 389.88 588.948 389.88H591.792C592.654 389.88 593.353 389.181 593.353 388.319C593.353 387.457 592.654 386.758 591.792 386.758Z" fill="white"/>
<path d="M573.731 387.018H556.057C555.195 387.018 554.496 387.717 554.496 388.579C554.496 389.441 555.195 390.14 556.057 390.14H573.731C574.593 390.14 575.292 389.441 575.292 388.579C575.292 387.717 574.593 387.018 573.731 387.018Z" fill="white"/>
<path d="M508.916 490.482L495.566 469.38L537.468 435.978L554.764 416.817C557.011 414.327 559.872 412.471 563.061 411.434C566.25 410.397 569.655 410.214 572.937 410.906C576.218 411.597 579.261 413.137 581.761 415.372C584.26 417.608 586.13 420.46 587.182 423.644C588.741 428.363 588.405 433.503 586.247 437.979C584.088 442.455 580.275 445.918 575.612 447.635L548.263 457.711L508.916 490.482Z" fill="#FFB6B6"/>
<path d="M195.691 337.481V440.041H267.541V337.481C267.543 336.743 267.307 336.024 266.87 335.43C266.432 334.837 265.816 334.398 265.111 334.181C264.779 334.071 264.431 334.017 264.081 334.021H199.161C198.706 334.02 198.255 334.109 197.835 334.282C197.414 334.456 197.032 334.71 196.709 335.032C196.387 335.353 196.131 335.735 195.957 336.155C195.782 336.575 195.692 337.026 195.691 337.481ZM223.731 372.721C223.75 370.699 224.567 368.766 226.003 367.343C227.439 365.92 229.379 365.121 231.401 365.121C233.423 365.121 235.364 365.92 236.8 367.343C238.236 368.766 239.053 370.699 239.071 372.721V384.621C239.061 386.648 238.248 388.589 236.811 390.019C235.374 391.449 233.429 392.252 231.401 392.252C229.374 392.252 227.429 391.449 225.992 390.019C224.554 388.589 223.742 386.648 223.731 384.621V372.721Z" fill="#2C2C2D"/>
<path d="M195.469 436.761V446.651C195.47 447.163 195.674 447.654 196.035 448.017C196.397 448.38 196.886 448.586 197.399 448.591H265.829C266.342 448.588 266.832 448.383 267.194 448.019C267.556 447.655 267.759 447.164 267.759 446.651V436.761H195.469Z" fill="#3F3D56"/>
<path d="M82.6602 182.961V370.221C82.662 372.607 83.6109 374.895 85.2983 376.582C86.9857 378.27 89.2738 379.219 91.6602 379.221H369.16C371.547 379.219 373.835 378.27 375.522 376.582C377.209 374.895 378.158 372.607 378.16 370.221V182.961C378.154 180.576 377.204 178.292 375.517 176.607C373.83 174.922 371.544 173.974 369.16 173.971H91.6602C89.2759 173.974 86.99 174.922 85.3031 176.607C83.6162 178.292 82.6658 180.576 82.6602 182.961Z" fill="#2C2C2D"/>
<path d="M89.1719 185.291V367.911C89.1741 369.186 89.6815 370.408 90.5831 371.309C91.4847 372.211 92.7069 372.719 93.9819 372.721H366.852C368.127 372.719 369.349 372.211 370.251 371.309C371.152 370.408 371.66 369.186 371.662 367.911V185.291C371.662 184.014 371.155 182.79 370.254 181.886C369.352 180.983 368.128 180.473 366.852 180.471H93.9819C92.7053 180.473 91.482 180.983 90.5802 181.886C89.6785 182.79 89.172 184.014 89.1719 185.291Z" fill="white"/>
<path d="M139.808 447.921C140.086 448.269 140.439 448.55 140.841 448.742C141.243 448.934 141.683 449.033 142.128 449.031H304.468C304.912 449.03 305.351 448.931 305.751 448.74C306.152 448.548 306.505 448.27 306.785 447.925C307.064 447.581 307.264 447.178 307.368 446.746C307.473 446.315 307.479 445.865 307.388 445.431L304.868 433.461C304.764 432.973 304.539 432.518 304.214 432.139C303.889 431.76 303.475 431.469 303.008 431.291C302.671 431.158 302.311 431.09 301.948 431.091H144.638C144.276 431.09 143.916 431.158 143.578 431.291C143.112 431.469 142.697 431.76 142.373 432.139C142.048 432.518 141.823 432.973 141.718 433.461L139.198 445.431C139.109 445.865 139.117 446.314 139.222 446.745C139.328 447.175 139.528 447.577 139.808 447.921Z" fill="#2C2C2D"/>
<path d="M357.996 205.627H102.673C102.407 205.621 102.155 205.512 101.969 205.322C101.784 205.132 101.68 204.877 101.68 204.612C101.68 204.347 101.784 204.092 101.969 203.902C102.155 203.712 102.407 203.603 102.673 203.597H357.996C358.262 203.603 358.514 203.712 358.7 203.902C358.885 204.092 358.989 204.347 358.989 204.612C358.989 204.877 358.885 205.132 358.7 205.322C358.514 205.512 358.262 205.621 357.996 205.627Z" fill="#3F3D56"/>
<path d="M120.052 198.413C123.338 198.413 126.002 195.69 126.002 192.33C126.002 188.971 123.338 186.247 120.052 186.247C116.766 186.247 114.102 188.971 114.102 192.33C114.102 195.69 116.766 198.413 120.052 198.413Z" fill="#3F3D56"/>
<path d="M140.607 198.413C143.893 198.413 146.557 195.69 146.557 192.33C146.557 188.971 143.893 186.247 140.607 186.247C137.32 186.247 134.656 188.971 134.656 192.33C134.656 195.69 137.32 198.413 140.607 198.413Z" fill="#3F3D56"/>
<path d="M161.165 198.413C164.452 198.413 167.116 195.69 167.116 192.33C167.116 188.971 164.452 186.247 161.165 186.247C157.879 186.247 155.215 188.971 155.215 192.33C155.215 195.69 157.879 198.413 161.165 198.413Z" fill="#3F3D56"/>
<path d="M345.617 187.751H331.017C330.728 187.758 330.454 187.877 330.252 188.084C330.05 188.29 329.938 188.567 329.938 188.856C329.938 189.145 330.05 189.422 330.252 189.628C330.454 189.835 330.728 189.954 331.017 189.961H345.617C345.907 189.957 346.185 189.839 346.388 189.632C346.592 189.425 346.707 189.146 346.707 188.856C346.707 188.566 346.592 188.287 346.388 188.08C346.185 187.873 345.907 187.755 345.617 187.751Z" fill="#3F3D56"/>
<path d="M345.614 191.899H331.014C330.726 191.906 330.451 192.025 330.249 192.232C330.047 192.438 329.934 192.715 329.934 193.004C329.934 193.293 330.047 193.571 330.249 193.777C330.451 193.984 330.726 194.103 331.014 194.109H345.614C345.905 194.106 346.183 193.988 346.387 193.781C346.592 193.574 346.706 193.295 346.706 193.004C346.706 192.714 346.592 192.435 346.387 192.228C346.183 192.021 345.905 191.903 345.614 191.899Z" fill="#3F3D56"/>
<path d="M345.617 196.051H331.017C330.728 196.058 330.454 196.177 330.252 196.383C330.05 196.59 329.938 196.867 329.938 197.156C329.938 197.444 330.05 197.722 330.252 197.928C330.454 198.135 330.728 198.254 331.017 198.261H345.617C345.907 198.257 346.185 198.138 346.388 197.932C346.592 197.725 346.707 197.446 346.707 197.156C346.707 196.865 346.592 196.587 346.388 196.38C346.185 196.173 345.907 196.055 345.617 196.051Z" fill="#3F3D56"/>
<path d="M697.594 441.101C698.035 442.384 698.87 443.494 699.981 444.272C701.092 445.05 702.421 445.457 703.777 445.432L730.269 444.75C731.635 444.724 732.956 444.256 734.034 443.416C735.112 442.577 735.889 441.411 736.25 440.093L739.999 400.006C741.329 400.609 742.777 400.906 744.237 400.877C745.505 400.845 746.755 400.564 747.914 400.049C749.074 399.534 750.121 398.796 750.995 397.877C751.869 396.957 752.554 395.875 753.01 394.691C753.466 393.507 753.684 392.245 753.652 390.976C753.621 389.708 753.339 388.458 752.824 387.299C752.31 386.139 751.571 385.092 750.652 384.218C749.733 383.344 748.65 382.659 747.466 382.203C746.282 381.747 745.02 381.529 743.752 381.56C743.168 381.559 742.586 381.619 742.015 381.741C741.395 381.07 740.641 380.536 739.801 380.173C738.962 379.811 738.056 379.629 737.141 379.638L696.391 380.69C696.053 380.703 695.717 380.745 695.386 380.815C694.492 380.982 693.644 381.338 692.9 381.859C692.155 382.381 691.531 383.056 691.07 383.839C690.608 384.622 690.319 385.495 690.223 386.399C690.127 387.303 690.226 388.217 690.513 389.08L697.594 441.101ZM740.767 397.284L743.435 387.732C743.739 386.628 743.746 385.464 743.455 384.357C743.585 384.357 743.699 384.295 743.829 384.295C745.658 384.257 747.427 384.946 748.749 386.211C750.071 387.476 750.837 389.213 750.88 391.042C750.923 392.871 750.239 394.643 748.977 395.968C747.716 397.293 745.981 398.064 744.152 398.112C742.97 398.149 741.799 397.863 740.767 397.284Z" fill="#2C2C2D"/>
<path d="M695.387 380.814C696.255 385.778 706.016 389.268 717.753 388.662C728.545 388.164 737.37 384.375 738.987 379.883C738.388 379.706 737.766 379.623 737.142 379.637L696.392 380.689C696.054 380.702 695.718 380.744 695.387 380.814Z" fill="#585062"/>
<path d="M719.906 419.073C719.959 419.06 720.01 419.037 720.056 419.007L725.81 415.241C725.879 415.196 725.936 415.134 725.976 415.061C726.015 414.988 726.036 414.906 726.036 414.823C726.036 414.74 726.016 414.658 725.976 414.585C725.937 414.512 725.879 414.45 725.81 414.405L719.83 410.488C719.775 410.452 719.714 410.427 719.649 410.414C719.585 410.402 719.518 410.402 719.454 410.416C719.389 410.429 719.328 410.455 719.274 410.492C719.219 410.529 719.173 410.576 719.136 410.631C719.1 410.686 719.076 410.748 719.063 410.812C719.051 410.877 719.052 410.943 719.065 411.008C719.079 411.072 719.105 411.133 719.142 411.188C719.179 411.242 719.227 411.288 719.282 411.324L724.623 414.822L719.509 418.17C719.41 418.235 719.337 418.333 719.304 418.446C719.27 418.56 719.277 418.681 719.325 418.79C719.373 418.898 719.457 418.986 719.563 419.038C719.67 419.09 719.791 419.102 719.906 419.073Z" fill="#5A2EB0"/>
<path d="M710.819 419.492C710.915 419.467 711.002 419.415 711.069 419.34C711.135 419.266 711.178 419.174 711.191 419.075C711.205 418.976 711.189 418.876 711.145 418.787C711.101 418.697 711.031 418.623 710.945 418.573L705.642 415.533L710.767 411.726C710.82 411.687 710.864 411.638 710.898 411.581C710.932 411.525 710.954 411.463 710.964 411.398C710.973 411.333 710.97 411.267 710.954 411.203C710.938 411.139 710.909 411.079 710.87 411.027C710.831 410.974 710.782 410.93 710.726 410.896C710.669 410.862 710.607 410.84 710.542 410.831C710.477 410.821 710.411 410.824 710.347 410.84C710.284 410.856 710.224 410.885 710.171 410.924L704.433 415.186C704.366 415.236 704.313 415.301 704.277 415.376C704.242 415.452 704.226 415.534 704.231 415.617C704.236 415.7 704.262 415.78 704.305 415.851C704.349 415.921 704.41 415.98 704.482 416.021L710.447 419.441C710.56 419.505 710.693 419.524 710.819 419.492Z" fill="#5A2EB0"/>
<path d="M719.333 422.372C719.381 422.36 719.427 422.34 719.47 422.314C719.526 422.28 719.575 422.235 719.614 422.182C719.652 422.129 719.68 422.069 719.696 422.005C719.711 421.941 719.714 421.875 719.704 421.81C719.694 421.745 719.671 421.683 719.637 421.627L711.482 408.219C711.413 408.106 711.301 408.025 711.173 407.993C711.044 407.962 710.908 407.984 710.795 408.053C710.682 408.122 710.6 408.233 710.569 408.361C710.538 408.49 710.559 408.626 710.627 408.739L718.783 422.148C718.838 422.239 718.922 422.31 719.021 422.35C719.12 422.391 719.229 422.398 719.333 422.372Z" fill="#5A2EB0"/>
<path d="M260.838 260.827H216.647C214.844 260.827 213.383 262.289 213.383 264.091V268.409C213.383 270.211 214.844 271.673 216.647 271.673H260.838C262.641 271.673 264.102 270.211 264.102 268.409V264.091C264.102 262.289 262.641 260.827 260.838 260.827Z" fill="#5A2EB0"/>
<path d="M286.597 282.519H190.889C189.086 282.519 187.625 283.98 187.625 285.783V290.1C187.625 291.903 189.086 293.364 190.889 293.364H286.597C288.4 293.364 289.861 291.903 289.861 290.1V285.783C289.861 283.98 288.4 282.519 286.597 282.519Z" fill="#E6E6E6"/>
<path d="M286.597 304.21H190.889C189.086 304.21 187.625 305.671 187.625 307.474V311.792C187.625 313.594 189.086 315.056 190.889 315.056H286.597C288.4 315.056 289.861 313.594 289.861 311.792V307.474C289.861 305.671 288.4 304.21 286.597 304.21Z" fill="#E6E6E6"/>
<path d="M294.711 376.845L294.928 377.53L294.939 377.553L301.464 397.391L308.971 420.252L323.093 463.213L323.23 469.886V469.909L324.28 523.594L321.371 530.872L324.645 542.804C324.645 542.804 323.139 524.767 315.062 535.125C310.488 541.012 305.138 547.035 300.746 552.682C307.145 555.271 313.648 557.614 320.253 559.709C321.679 560.165 323.116 560.599 324.553 561.032C324.861 561.124 325.169 561.215 325.477 561.306C347.372 567.781 370.007 571.419 392.828 572.132C394.015 572.166 395.178 572.189 396.308 572.212C396.707 572.223 397.095 572.235 397.483 572.235C398.76 572.246 400.027 572.257 401.304 572.257C403.882 572.257 406.449 572.219 409.004 572.143C427.918 571.61 446.721 569.067 465.096 564.557C464.97 556.971 464.628 548.107 464.138 538.639C463.909 533.996 458.787 528.965 458.479 524.106C458.263 520.455 462.86 517.021 462.62 513.314C461.069 490.487 459.13 499.25 457.692 483.085C457.544 481.499 457.407 479.982 457.282 478.533C456.358 468.152 455.719 461.661 455.719 461.661L461.856 422.978L471.496 362.244L470.754 361.023L469.921 360.612L419.077 335.447L416.317 328.374C415.512 326.337 414.117 324.586 412.309 323.348C410.502 322.11 408.366 321.441 406.175 321.427L372.682 321.29C370.944 321.282 369.229 321.689 367.68 322.477C366.13 323.264 364.791 324.41 363.773 325.819L354.704 338.379L294.711 376.845Z" fill="#585062"/>
<path d="M330.815 453.654L323.228 469.887L318.05 480.975L309.14 527.622L304.68 532.356L300.858 515.596L260.86 524.477C259.548 517.188 260.509 524.724 259.699 516.727C259.927 516.499 260.167 516.271 260.406 516.043C261.045 515.449 261.581 514.89 261.57 514.354C261.114 486.771 262.483 439.828 273.913 411.389C275.703 406.745 278.064 402.342 280.94 398.281C281.168 397.973 281.385 397.665 281.602 397.357C286.872 389.976 290.203 382.71 294.926 377.542V377.531C294.956 377.507 294.982 377.48 295.006 377.451C295.023 377.442 295.039 377.431 295.052 377.417L327.495 360.214L328.887 399.319L329.879 427.428L330.815 453.654Z" fill="#585062"/>
<path d="M447.801 458.264L457.277 478.538L460.584 485.599L469.491 532.241L473.937 536.964L477.767 520.208L479.567 519.839L512.025 513.117L521.486 543.163C523.618 539.61 524.458 535.43 523.864 531.33C523.27 527.229 521.278 523.459 518.225 520.658C517.579 520.073 517.04 519.504 517.056 518.965C517.594 486.522 515.61 427.282 497.688 402.9C491.997 395.162 488.582 387.455 483.613 382.071C483.597 382.055 483.597 382.04 483.582 382.04L471.491 362.242L470.752 361.027L469.922 360.611L447.801 458.264Z" fill="#585062"/>
<path d="M390.398 311.759C415.007 311.759 434.956 291.81 434.956 267.201C434.956 242.592 415.007 222.643 390.398 222.643C365.789 222.643 345.84 242.592 345.84 267.201C345.84 291.81 365.789 311.759 390.398 311.759Z" fill="#FFB6B6"/>
<path d="M450.622 236.077C450.276 235.708 449.86 235.413 449.398 235.208C448.936 235.004 448.437 234.894 447.932 234.887L448.602 233.027C448.82 232.441 448.879 231.808 448.773 231.192C448.666 230.575 448.397 229.999 447.994 229.52C447.592 229.042 447.069 228.68 446.48 228.47C445.89 228.26 445.256 228.211 444.642 228.327L442.202 228.797L442.432 227.167C442.52 226.56 442.448 225.94 442.225 225.369C442.001 224.798 441.632 224.295 441.155 223.91C440.678 223.524 440.108 223.27 439.503 223.171C438.897 223.072 438.277 223.133 437.702 223.347C437.179 223.553 436.616 223.639 436.056 223.599C435.495 223.56 434.95 223.395 434.462 223.117C433.971 222.848 433.545 222.475 433.213 222.024C432.882 221.573 432.653 221.056 432.542 220.507L431.692 216.407L431.602 216.187C427.462 209.287 419.502 204.267 409.762 202.427C401.092 200.777 392.202 201.617 383.632 202.407C380.232 202.727 376.392 203.087 373.192 205.047C370.472 206.727 368.172 210.087 368.642 213.477C360.192 210.887 351.132 216.057 346.642 222.577C341.322 230.337 340.452 240.057 340.312 247.657C339.932 265.637 343.642 280.347 351.312 291.387C351.872 292.187 352.012 293.857 353.122 294.417L352.892 294.047C354.132 294.667 355.392 295.667 354.922 296.737C353.572 299.817 362.542 306.627 368.862 308.877C380.392 312.987 395.722 312.637 406.502 311.157L406.882 308.607C410.772 308.077 413.512 307.067 414.282 305.487C415.642 304.327 416.802 303.287 417.812 302.327L417.822 302.317C417.842 302.297 417.882 302.267 417.902 302.247C422.772 297.577 423.902 294.917 424.412 290.867C424.902 286.897 424.032 282.867 423.142 279.237C441.882 282.137 415.762 259.277 433.222 254.857C433.422 254.795 433.626 254.745 433.832 254.707C434.342 254.587 434.852 254.467 435.342 254.327C437.704 253.686 439.965 252.72 442.062 251.457C446.942 248.487 448.552 244.547 451.072 240.107C451.435 239.475 451.588 238.743 451.507 238.018C451.426 237.294 451.116 236.613 450.622 236.077Z" fill="#564A4A"/>
<path d="M547.992 461.437C547.982 463.187 547.962 465.637 547.882 468.667C547.872 469.087 547.862 469.517 547.852 469.957C547.722 475.527 547.592 480.197 547.382 485.387C547.372 485.747 547.362 486.097 547.342 486.457C547.062 493.697 546.622 502.127 545.862 515.477C544.452 540.137 541.992 518.867 539.522 527.517C539.402 527.947 539.272 528.457 539.152 529.057C538.778 531.234 538.147 533.358 537.272 535.387C535.962 536.167 534.612 536.917 533.282 537.667C529.492 539.777 525.642 541.807 521.762 543.737C519.582 544.817 517.392 545.877 515.192 546.897C514.842 547.057 514.502 547.217 514.162 547.367C502.896 552.578 491.285 557.008 479.412 560.627C477.092 561.327 474.782 562.007 472.442 562.637C470.002 563.317 467.562 563.957 465.092 564.557C446.717 569.068 427.915 571.612 409.002 572.147C406.452 572.227 403.882 572.257 401.302 572.257C400.022 572.257 398.762 572.247 397.482 572.237C397.092 572.237 396.702 572.227 396.312 572.217C395.182 572.187 394.012 572.167 392.832 572.137C370.011 571.425 347.376 567.785 325.482 561.307L324.552 561.037C323.112 560.597 321.682 560.167 320.252 559.707C313.652 557.617 307.149 555.277 300.742 552.687C295.852 550.717 291.019 548.603 286.242 546.347C286.198 546.335 286.158 546.314 286.122 546.287C285.122 545.827 284.112 545.347 283.112 544.857C282.982 544.787 282.842 544.717 282.702 544.647C278.972 542.827 275.282 540.92 271.632 538.927C268.562 531.877 264.242 530.527 261.562 524.327C260.782 522.485 260.218 520.558 259.882 518.587C259.882 518.567 259.872 518.547 259.872 518.517C260.152 522.237 258.682 511.917 259.862 518.477C259.852 518.357 259.842 518.227 259.832 518.077C259.802 517.717 259.762 517.277 259.702 516.727C256.272 483.237 256.492 444.937 255.002 413.377C254.902 411.337 254.799 409.383 254.692 407.517C254.662 406.897 254.622 406.287 254.582 405.687C254.652 405.507 254.732 405.317 254.822 405.137C254.841 405.085 254.865 405.035 254.892 404.987C254.922 404.925 254.955 404.864 254.992 404.807C255.012 404.777 255.042 404.737 255.062 404.707C255.077 404.672 255.093 404.639 255.112 404.607C255.202 404.467 255.302 404.317 255.412 404.177C255.462 404.117 255.502 404.067 255.552 404.017C255.587 403.966 255.627 403.919 255.672 403.877C255.703 403.829 255.74 403.785 255.782 403.747C255.822 403.707 255.862 403.657 255.912 403.607C255.933 403.575 255.961 403.548 255.992 403.527C256.071 403.436 256.158 403.352 256.252 403.277C256.609 402.948 256.99 402.647 257.392 402.377C257.532 402.287 257.682 402.197 257.822 402.097C258.83 401.494 259.891 400.985 260.992 400.577C261.372 400.437 261.752 400.307 262.162 400.167C262.312 400.127 262.452 400.077 262.602 400.027C262.822 399.957 263.042 399.887 263.272 399.837C264.412 399.497 265.642 399.207 266.972 398.937C267.132 398.907 267.302 398.877 267.472 398.837C267.712 398.787 267.962 398.747 268.212 398.707C268.552 398.647 268.902 398.587 269.252 398.527C272.222 398.057 275.592 397.707 279.312 397.477C279.662 397.457 280.012 397.437 280.362 397.417C280.772 397.397 281.182 397.377 281.602 397.357C281.952 397.337 282.312 397.327 282.672 397.317C283.022 397.297 283.382 397.287 283.752 397.277C284.762 397.247 285.802 397.217 286.862 397.197C289.882 397.137 293.062 397.157 296.402 397.227C297.952 397.267 299.532 397.307 301.152 397.377C301.262 397.377 301.362 397.387 301.462 397.387C302.872 397.437 304.292 397.497 305.752 397.577C306.772 397.627 307.802 397.677 308.832 397.737C309.802 397.797 310.782 397.857 311.772 397.927C312.542 397.967 313.312 398.027 314.092 398.077C314.752 398.127 315.412 398.177 316.072 398.217L316.972 398.277C317.462 398.317 317.952 398.347 318.452 398.397C319.552 398.487 320.652 398.577 321.772 398.667C322.882 398.767 324.012 398.867 325.142 398.967C326.272 399.067 327.412 399.177 328.552 399.287C328.672 399.297 328.782 399.307 328.892 399.317C329.932 399.427 330.972 399.527 332.022 399.637C332.262 399.657 332.512 399.677 332.752 399.707C333.753 399.807 334.774 399.925 335.784 400.032C336.094 400.066 336.402 400.098 336.713 400.132C337.505 400.218 338.285 400.293 339.082 400.387C340.132 400.507 341.202 400.617 342.242 400.757C343.052 400.847 343.862 400.937 344.672 401.037C345.942 401.187 347.232 401.347 348.522 401.517C349.012 401.577 349.502 401.637 349.992 401.707C353.672 402.167 357.392 402.677 361.172 403.207C366.902 404.017 372.722 404.897 378.582 405.847C384.452 406.797 390.355 407.8 396.292 408.857C397.792 409.127 399.292 409.397 400.802 409.677C401.482 409.807 402.162 409.937 402.842 410.067C404.002 410.277 405.162 410.497 406.322 410.717C407.482 410.937 408.642 411.157 409.802 411.387C411.182 411.657 412.572 411.927 413.952 412.197C423.042 413.997 432.082 415.917 440.902 417.927C442.352 418.257 443.802 418.597 445.242 418.927C448.122 419.597 450.975 420.277 453.802 420.967C454.582 421.147 455.352 421.337 456.122 421.527C458.042 422.007 459.962 422.487 461.852 422.977L462.182 423.067C463.572 423.407 464.932 423.757 466.292 424.117C469.502 424.957 472.659 425.807 475.762 426.667C477.822 427.237 479.859 427.813 481.872 428.397C484.882 429.267 487.832 430.147 490.702 431.037C491.412 431.257 492.122 431.477 492.822 431.687C494.922 432.337 496.992 432.997 499.002 433.657C500.602 434.177 502.162 434.707 503.702 435.237C505.242 435.767 506.752 436.297 508.232 436.827C509.182 437.167 510.122 437.527 511.062 437.867C512.412 438.367 513.742 438.867 515.042 439.367C515.442 439.517 515.832 439.677 516.222 439.827C516.472 439.937 516.712 440.027 516.952 440.127C517.422 440.317 517.902 440.497 518.362 440.687C518.832 440.867 519.292 441.057 519.752 441.257C520.202 441.437 520.662 441.627 521.102 441.817C521.552 441.997 521.992 442.187 522.432 442.387C522.802 442.537 523.162 442.697 523.512 442.857C524.222 443.167 524.932 443.477 525.622 443.797C525.962 443.957 526.302 444.107 526.642 444.267L527.422 444.627C527.532 444.687 527.642 444.737 527.752 444.787C528.002 444.907 528.262 445.037 528.512 445.157C529.092 445.427 529.662 445.717 530.222 445.987C530.972 446.367 531.702 446.747 532.402 447.117C533.112 447.497 533.802 447.877 534.462 448.247C534.572 448.307 534.672 448.367 534.782 448.427C534.932 448.507 535.082 448.597 535.232 448.677C535.742 448.967 536.232 449.267 536.722 449.557C537.682 450.147 538.592 450.727 539.442 451.307C539.632 451.437 539.812 451.567 540.002 451.687C540.632 452.137 541.232 452.577 541.792 453.027C541.792 453.037 541.792 453.037 541.802 453.037C541.992 453.177 542.172 453.327 542.352 453.467C542.502 453.607 542.662 453.727 542.812 453.867C543.332 454.317 543.812 454.746 544.252 455.187C544.399 455.322 544.54 455.466 544.672 455.617C544.73 455.665 544.784 455.718 544.832 455.777C545.032 455.977 545.212 456.177 545.382 456.377C545.408 456.404 545.432 456.434 545.452 456.467C545.692 456.747 545.912 457.027 546.122 457.307C546.222 457.447 546.332 457.587 546.422 457.727C546.542 457.897 546.662 458.077 546.762 458.247C546.852 458.387 546.932 458.537 547.012 458.677C547.224 459.037 547.405 459.415 547.552 459.807C547.664 460.072 547.755 460.346 547.822 460.627C547.898 460.892 547.954 461.163 547.992 461.437Z" fill="#2F2E41"/>
<path opacity="0.2" d="M547.99 461.437C547.98 463.187 547.96 465.637 547.88 468.667C547.87 469.087 547.85 469.517 547.84 469.957C547.74 474.207 547.59 479.457 547.38 485.387C547.37 485.747 547.36 486.097 547.34 486.457C547.06 493.697 546.62 502.127 545.86 515.477C544.45 540.137 541.99 518.867 539.52 527.517C532.66 523.297 525.14 518.877 517.1 514.337C515.65 513.517 514.187 512.693 512.71 511.867C496.63 502.897 478.67 493.497 459.92 484.187C459.18 483.817 458.43 483.447 457.69 483.087C414.74 461.857 367.86 441.207 329.88 427.427C322.55 424.767 315.55 422.367 308.97 420.257C295.11 415.827 283.13 412.727 273.91 411.387C264.31 409.987 257.68 410.487 255 413.377C254.9 411.337 254.797 409.383 254.69 407.517C254.65 406.897 254.61 406.287 254.57 405.687C254.632 405.522 254.712 405.365 254.79 405.207C254.801 405.183 254.809 405.16 254.82 405.137C254.839 405.085 254.863 405.035 254.89 404.987C254.92 404.925 254.953 404.865 254.99 404.807C255.023 404.736 255.063 404.669 255.11 404.607C255.2 404.467 255.3 404.317 255.41 404.177C255.491 404.072 255.578 403.972 255.67 403.877C255.701 403.829 255.738 403.785 255.78 403.747C255.82 403.707 255.86 403.657 255.91 403.607C255.932 403.575 255.959 403.548 255.99 403.527C256.069 403.436 256.156 403.352 256.25 403.277C256.607 402.948 256.988 402.648 257.39 402.377C257.53 402.287 257.68 402.197 257.82 402.097C258.828 401.494 259.889 400.985 260.99 400.577C261.37 400.437 261.75 400.307 262.16 400.167C262.31 400.127 262.45 400.077 262.6 400.027C262.82 399.957 263.04 399.887 263.27 399.837C264.41 399.497 265.64 399.207 266.97 398.937C267.37 398.857 267.79 398.777 268.21 398.707C268.55 398.647 268.9 398.587 269.25 398.527C272.22 398.057 275.59 397.707 279.31 397.477C279.66 397.457 280.01 397.437 280.36 397.417C280.77 397.397 281.18 397.377 281.6 397.357C281.95 397.337 282.31 397.327 282.67 397.317C283.02 397.297 283.38 397.287 283.75 397.277C284.76 397.247 285.8 397.217 286.86 397.197C289.88 397.147 293.06 397.167 296.4 397.237C297.95 397.267 299.53 397.317 301.15 397.387C301.25 397.387 301.36 397.397 301.46 397.397C302.87 397.437 304.3 397.507 305.75 397.577C306.77 397.627 307.8 397.677 308.83 397.737C309.8 397.797 310.78 397.857 311.77 397.927C312.54 397.967 313.31 398.027 314.09 398.077C314.75 398.127 315.41 398.177 316.07 398.217C316.86 398.277 317.65 398.337 318.45 398.397C319.55 398.487 320.65 398.577 321.77 398.667C322.88 398.767 324.01 398.867 325.14 398.967C326.27 399.067 327.41 399.177 328.55 399.287C328.67 399.297 328.78 399.307 328.89 399.317C329.93 399.427 330.97 399.527 332.02 399.637C337.84 400.227 343.83 400.917 349.99 401.707C353.67 402.177 357.397 402.68 361.17 403.217C366.9 404.027 372.72 404.907 378.58 405.847C384.45 406.797 390.354 407.8 396.29 408.857C397.79 409.127 399.29 409.397 400.8 409.677C402.64 410.017 404.48 410.363 406.32 410.717C407.48 410.937 408.64 411.157 409.8 411.387C411.18 411.657 412.57 411.927 413.95 412.197C423.04 413.997 432.08 415.917 440.9 417.927C442.35 418.257 443.8 418.597 445.24 418.927C448.12 419.597 450.974 420.277 453.8 420.967C454.58 421.157 455.35 421.347 456.12 421.537C458.05 422.017 459.96 422.497 461.85 422.977V422.987C461.96 423.007 462.07 423.037 462.18 423.067C463.56 423.417 464.93 423.767 466.29 424.127C469.5 424.967 472.657 425.813 475.76 426.667C477.82 427.247 479.86 427.817 481.87 428.397C484.88 429.277 487.83 430.157 490.7 431.037C491.41 431.257 492.12 431.477 492.82 431.687C494.92 432.347 496.98 433.003 499 433.657C500.6 434.177 502.16 434.707 503.7 435.237C505.24 435.767 506.75 436.297 508.23 436.827C509.19 437.167 510.13 437.517 511.06 437.857C512.42 438.357 513.74 438.857 515.04 439.367C515.44 439.517 515.83 439.677 516.22 439.827C516.95 440.107 517.66 440.397 518.36 440.687C518.83 440.867 519.29 441.057 519.75 441.257C520.2 441.437 520.66 441.627 521.1 441.817C521.55 441.997 521.99 442.187 522.43 442.387C522.8 442.537 523.16 442.697 523.51 442.857C524.22 443.167 524.93 443.477 525.62 443.797C525.96 443.957 526.3 444.107 526.64 444.267L527.42 444.627C527.53 444.687 527.64 444.737 527.75 444.787C528.6 445.187 529.42 445.587 530.22 445.987C530.97 446.367 531.7 446.747 532.4 447.117C533.23 447.557 534.02 447.987 534.78 448.427C534.93 448.507 535.08 448.597 535.23 448.677C535.74 448.967 536.23 449.267 536.72 449.557C537.68 450.147 538.59 450.727 539.44 451.307C540.28 451.887 541.06 452.457 541.79 453.027C541.79 453.037 541.79 453.037 541.8 453.037C542.15 453.317 542.49 453.597 542.81 453.867C543.33 454.317 543.81 454.747 544.25 455.187C544.398 455.322 544.538 455.466 544.67 455.617C544.728 455.665 544.782 455.718 544.83 455.777C545.04 456.007 545.25 456.237 545.45 456.467C545.69 456.747 545.91 457.027 546.12 457.307C546.22 457.447 546.33 457.587 546.42 457.727C546.54 457.897 546.66 458.077 546.76 458.247C546.85 458.387 546.93 458.537 547.01 458.677C547.223 459.037 547.403 459.415 547.55 459.807C547.66 460.073 547.75 460.347 547.82 460.627C547.896 460.892 547.953 461.163 547.99 461.437Z" fill="black"/>
</g>
</g>
</g>
<defs>
<filter id="filter0_d_1011_604" x="-8" y="11" width="810" height="619" filterUnits="userSpaceOnUse" color-interpolation-filters="sRGB">
<feFlood flood-opacity="0" result="BackgroundImageFix"/>
<feColorMatrix in="SourceAlpha" type="matrix" values="0 0 0 0 0 0 0 0 0 0 0 0 0 0 0 0 0 0 127 0" result="hardAlpha"/>
<feOffset/>
<feGaussianBlur stdDeviation="15"/>
<feComposite in2="hardAlpha" operator="out"/>
<feColorMatrix type="matrix" values="0 0 0 0 0 0 0 0 0 0 0 0 0 0 0 0 0 0 0.1 0"/>
<feBlend mode="normal" in2="BackgroundImageFix" result="effect1_dropShadow_1011_604"/>
<feBlend mode="normal" in="SourceGraphic" in2="effect1_dropShadow_1011_604" result="shape"/>
</filter>
<filter id="filter1_d_1011_604" x="0" y="169.971" width="794.82" height="406.286" filterUnits="userSpaceOnUse" color-interpolation-filters="sRGB">
<feFlood flood-opacity="0" result="BackgroundImageFix"/>
<feColorMatrix in="SourceAlpha" type="matrix" values="0 0 0 0 0 0 0 0 0 0 0 0 0 0 0 0 0 0 127 0" result="hardAlpha"/>
<feOffset/>
<feGaussianBlur stdDeviation="2"/>
<feComposite in2="hardAlpha" operator="out"/>
<feColorMatrix type="matrix" values="0 0 0 0 0 0 0 0 0 0 0 0 0 0 0 0 0 0 0.25 0"/>
<feBlend mode="normal" in2="BackgroundImageFix" result="effect1_dropShadow_1011_604"/>
<feBlend mode="normal" in="SourceGraphic" in2="effect1_dropShadow_1011_604" result="shape"/>
</filter>
<clipPath id="clip0_1011_604">
<rect width="795" height="600" fill="white"/>
</clipPath>
</defs>
</svg>
