<svg width="72" height="72" viewBox="0 0 72 72" fill="none" xmlns="http://www.w3.org/2000/svg">
<path d="M14.2969 56.25H65.25V2.25H14.1563C11.8959 2.25727 9.73014 3.15843 8.13179 4.75679C6.53343 6.35514 5.63227 8.52089 5.625 10.7813V60.5039H5.62655C5.62655 60.5251 5.625 60.5461 5.625 60.5676C5.625 65.5457 9.53184 69.7504 14.1563 69.7504H65.25V65.25H14.1563C12.0465 65.25 10.125 63.0181 10.125 60.5672C10.125 58.2272 12.0354 56.25 14.2969 56.25ZM50.625 6.79683V31.0991L43.8188 25.1239L37.125 31.0641V6.79683H50.625ZM32.625 6.75V37.125H37.0745L43.8351 31.1261L50.6679 37.125H55.125V6.75H60.75V51.75H19.1363L19.125 6.75H32.625ZM14.1563 6.75H14.625L14.6357 51.75H14.2964C12.8331 51.7503 11.3953 52.1324 10.125 52.8585V10.8165C10.1216 9.74299 10.5441 8.712 11.2998 7.94966C12.0556 7.18731 13.0828 6.75588 14.1563 6.75V6.75Z" fill="rgb(52, 196, 124)"/>
</svg>
