<svg width="200" height="200" viewBox="0 0 200 200" fill="none" xmlns="http://www.w3.org/2000/svg">
<path d="M33.3347 41.6667V158.333H166.668V41.6667H33.3347ZM25.0013 25H175.001C177.212 25 179.331 25.878 180.894 27.4408C182.457 29.0036 183.335 31.1232 183.335 33.3333V166.667C183.335 168.877 182.457 170.996 180.894 172.559C179.331 174.122 177.212 175 175.001 175H25.0013C22.7912 175 20.6716 174.122 19.1087 172.559C17.5459 170.996 16.668 168.877 16.668 166.667V33.3333C16.668 31.1232 17.5459 29.0036 19.1087 27.4408C20.6716 25.878 22.7912 25 25.0013 25V25ZM123.276 81.6083L108.335 66.6667H150.001V108.333L135.06 93.3917L102.86 125.592L85.1847 107.917L61.6097 131.483L49.8263 119.7L85.1847 84.3417L102.86 102.025L123.276 81.6083Z" fill="white"/>
</svg>
