<svg width="57" height="126" viewBox="0 0 57 126" fill="none" xmlns="http://www.w3.org/2000/svg">
<g clip-path="url(#clip0_860_30)">
<path d="M7.4558 46.848V14.336C7.4558 8.19201 10.1865 4.13867 15.6478 2.176C18.4638 1.152 22.0478 0.426667 26.3998 0V1.152C21.8771 2.43201 19.1891 4.69334 18.3358 7.93601C17.9091 9.55734 17.6958 11.5627 17.6958 13.952V46.464C17.6958 55.68 13.0025 61.184 3.6158 62.976C13.0025 64.9387 17.6958 70.4427 17.6958 79.488V112C17.6958 116.864 18.6345 120.107 20.5118 121.728C22.0478 123.093 24.0105 124.117 26.3998 124.8V125.952C18.8051 125.099 13.7705 123.563 11.2958 121.344C8.7358 118.955 7.4558 115.712 7.4558 111.616V79.104C7.4558 69.9733 5.23713 64.768 0.799805 63.488V62.464C5.23713 61.184 7.4558 55.9787 7.4558 46.848Z" fill="#A154F2"/>
<path d="M37.4558 46.848V14.336C37.4558 8.19201 40.1865 4.13867 45.6478 2.176C48.4638 1.152 52.0478 0.426667 56.3998 0V1.152C51.8771 2.43201 49.1891 4.69334 48.3358 7.93601C47.9091 9.55734 47.6958 11.5627 47.6958 13.952V46.464C47.6958 55.68 43.0025 61.184 33.6158 62.976C43.0025 64.9387 47.6958 70.4427 47.6958 79.488V112C47.6958 116.864 48.6345 120.107 50.5118 121.728C52.0478 123.093 54.0105 124.117 56.3998 124.8V125.952C48.8051 125.099 43.7705 123.563 41.2958 121.344C38.7358 118.955 37.4558 115.712 37.4558 111.616V79.104C37.4558 69.9733 35.2371 64.768 30.7998 63.488V62.464C35.2371 61.184 37.4558 55.9787 37.4558 46.848Z" fill="#5D0BB3"/>
<path d="M22.4558 46.848V14.336C22.4558 8.19201 25.1865 4.13867 30.6478 2.176C33.4638 1.152 37.0478 0.426667 41.3998 0V1.152C36.8771 2.43201 34.1891 4.69334 33.3358 7.93601C32.9091 9.55734 32.6958 11.5627 32.6958 13.952V46.464C32.6958 55.68 28.0025 61.184 18.6158 62.976C28.0025 64.9387 32.6958 70.4427 32.6958 79.488V112C32.6958 116.864 33.6345 120.107 35.5118 121.728C37.0478 123.093 39.0105 124.117 41.3998 124.8V125.952C33.8051 125.099 28.7705 123.563 26.2958 121.344C23.7358 118.955 22.4558 115.712 22.4558 111.616V79.104C22.4558 69.9733 20.2371 64.768 15.7998 63.488V62.464C20.2371 61.184 22.4558 55.9787 22.4558 46.848Z" fill="#7724CF"/>
</g>
<defs>
<clipPath id="clip0_860_30">
<rect width="57" height="126" fill="white"/>
</clipPath>
</defs>
</svg>
