<svg width="234" height="237" viewBox="0 0 234 237" fill="none" xmlns="http://www.w3.org/2000/svg">
<g clip-path="url(#clip0_1021_33)">
<path d="M117 213C168.915 213 211 170.915 211 119C211 67.0852 168.915 25 117 25C65.0852 25 23 67.0852 23 119C23 170.915 65.0852 213 117 213Z" stroke="white" stroke-width="18"/>
<path d="M137 0H97V20H137V0Z" fill="white"/>
<path d="M48.2843 19.9999L20 48.2842L34.1421 62.4263L62.4264 34.142L48.2843 19.9999Z" fill="white"/>
<path d="M0 99L0 139H20L20 99H0Z" fill="white"/>
<path d="M62.4249 203.284L34.1406 175L19.9985 189.142L48.2828 217.426L62.4249 203.284Z" fill="white"/>
<path d="M214.425 48.2843L186.141 20L171.998 34.1421L200.283 62.4264L214.425 48.2843Z" fill="white"/>
<path d="M214 99V139H234V99H214Z" fill="white"/>
<path d="M200.284 175L172 203.284L186.142 217.426L214.426 189.142L200.284 175Z" fill="white"/>
<path d="M137 217H97V237H137V217Z" fill="white"/>
<path d="M104 52C104 49.7909 105.791 48 108 48H126C128.209 48 130 49.7909 130 52V129C130 136.18 124.18 142 117 142C109.82 142 104 136.18 104 129V52Z" fill="white"/>
<path d="M117 181C125.284 181 132 174.284 132 166C132 157.716 125.284 151 117 151C108.716 151 102 157.716 102 166C102 174.284 108.716 181 117 181Z" fill="white"/>
</g>
<defs>
<clipPath id="clip0_1021_33">
<rect width="234" height="237" fill="white"/>
</clipPath>
</defs>
</svg>
