<svg width="44" height="24" viewBox="0 0 44 24" fill="none" xmlns="http://www.w3.org/2000/svg">
<g clip-path="url(#clip0_1020_23)">
<path d="M18.5328 5.88258C17.6866 5.17258 17.5763 3.91107 18.2863 3.06492L19.5719 1.53283C20.2819 0.686681 21.5434 0.576313 22.3895 1.28632L42.1099 17.8337C43.3791 18.8987 43.5447 20.7909 42.4797 22.0602C41.4147 23.3294 39.5224 23.4949 38.2532 22.4299L18.5328 5.88258Z" fill="#D9D9D9"/>
<path d="M19.6834 1.28534C20.5295 0.575337 21.791 0.685706 22.501 1.53186L23.7866 3.06395C24.4966 3.9101 24.3862 5.17161 23.5401 5.88161L5.15499 21.3085C3.88577 22.3736 1.9935 22.208 0.928499 20.9388C-0.136506 19.6696 0.0290451 17.7773 1.29827 16.7123L19.6834 1.28534Z" fill="#D9D9D9"/>
</g>
<defs>
<clipPath id="clip0_1020_23">
<rect width="44" height="24" fill="white"/>
</clipPath>
</defs>
</svg>
