<svg width="200" height="200" viewBox="0 0 200 200" fill="none" xmlns="http://www.w3.org/2000/svg">
<path d="M160.781 134.241L132.335 115.751L143.059 96.0891C145.559 91.4975 146.871 86.3535 146.875 81.1254V50C146.875 38.3968 142.265 27.2688 134.061 19.0641C125.856 10.8594 114.728 6.25 103.125 6.25C91.5216 6.25 80.3936 10.8594 72.1889 19.0641C63.9842 27.2688 59.3748 38.3968 59.3748 50V81.1254C59.3787 86.3536 60.6904 91.4977 63.1904 96.0895L73.915 115.751L45.4686 134.241C41.0967 137.071 37.5044 140.952 35.0204 145.53C32.5364 150.107 31.24 155.234 31.2498 160.442V193.75H175V160.442C175.01 155.234 173.713 150.107 171.229 145.53C168.745 140.952 165.153 137.071 160.781 134.241V134.241ZM162.5 181.25H43.7498V160.442C43.744 157.317 44.5219 154.241 46.0123 151.494C47.5028 148.748 49.6583 146.419 52.2814 144.721L90.4299 119.925L74.1643 90.1039C72.6643 87.3488 71.8772 84.2623 71.8748 81.1254V50C71.8748 41.712 75.1672 33.7634 81.0277 27.9029C86.8882 22.0424 94.8368 18.75 103.125 18.75C111.413 18.75 119.361 22.0424 125.222 27.9029C131.082 33.7634 134.375 41.712 134.375 50V81.1254C134.372 84.2623 133.585 87.3488 132.085 90.1039L115.82 119.925L153.969 144.721C156.592 146.419 158.748 148.748 160.238 151.495C161.728 154.241 162.506 157.317 162.5 160.442V181.25Z" fill="white"/>
</svg>
