<svg width="100" height="100" viewBox="0 0 100 100" fill="none" xmlns="http://www.w3.org/2000/svg">
<g id="azure">
<g id="azure_2">
<path id="Vector" d="M33.3381 3.0025H62.9288L32.2105 94.0709C32.0535 94.536 31.8249 94.9737 31.533 95.3684C31.2417 95.7635 30.8905 96.1097 30.4917 96.396C30.0929 96.6823 29.6529 96.9048 29.1853 97.0548C28.7178 97.2048 28.2303 97.2823 27.7402 97.2823H4.71122C3.96367 97.2823 3.22612 97.1048 2.56108 96.7623C1.89533 96.4207 1.32064 95.9253 0.884716 95.3172C0.448508 94.7091 0.163143 94.0059 0.0521613 93.2658C-0.059096 92.5258 0.00840845 91.7695 0.247174 91.0607L28.8666 6.21146C29.0228 5.74643 29.2516 5.3089 29.5441 4.91387C29.8354 4.51885 30.1879 4.17258 30.5854 3.88631C30.9842 3.60004 31.4242 3.37752 31.8918 3.22751C32.3593 3.0775 32.8468 3 33.3369 3V3.00125L33.3381 3.0025Z" fill="url(#paint0_linear_64_16)"/>
<path id="Vector_2" d="M87.8867 97.2825H61.3162C61.02 97.2825 60.7237 97.2549 60.4312 97.1987C60.1399 97.1437 59.8536 97.0612 59.5774 96.9524C59.3011 96.8437 59.0361 96.7087 58.7848 96.5512C58.5339 96.3926 58.2982 96.211 58.081 96.0086L27.9291 67.8493C27.6101 67.5515 27.388 67.1648 27.2915 66.7392C27.1951 66.3137 27.229 65.8689 27.3889 65.4629C27.5487 65.0569 27.8271 64.7084 28.1878 64.4628C28.5491 64.2178 28.9754 64.0865 29.4117 64.0865H76.3347L87.8842 97.2837L87.8867 97.2825Z" fill="#0078D4"/>
<path id="Vector_3" d="M63.035 3.0025L42.3211 64.0928L76.1658 64.0853L87.7753 97.2825H61.3049C61.0311 97.28 60.7573 97.255 60.4873 97.2062C60.2173 97.1575 59.9523 97.0862 59.6948 96.9912C59.1784 96.8031 58.6981 96.5278 58.2747 96.1774L37.9208 77.1812L32.223 93.9848C32.0754 94.4048 31.8729 94.8036 31.6204 95.1698C31.1143 95.9067 30.422 96.4963 29.614 96.8787C29.2118 97.069 28.7859 97.2048 28.3477 97.2825H4.7249C3.96985 97.285 3.2248 97.105 2.55351 96.7575C1.88211 96.4102 1.30418 95.9065 0.868576 95.2887C0.432968 94.671 0.152488 93.9575 0.0508445 93.2085C-0.0504311 92.4591 0.0297389 91.6965 0.28461 90.9846L28.8577 6.27522C29.0065 5.80144 29.2303 5.35516 29.5203 4.95263C29.809 4.5501 30.1616 4.19508 30.5616 3.90256C30.9616 3.61004 31.4067 3.38253 31.8779 3.23002C32.3492 3.0775 32.843 3 33.3393 3.0025H63.0362H63.035Z" fill="url(#paint1_linear_64_16)"/>
<path id="Vector_4" d="M99.7525 91.0609C99.9914 91.7701 100.059 92.5258 99.9488 93.266C99.8377 94.0059 99.5528 94.7089 99.1175 95.3174C98.6814 95.9252 98.107 96.4204 97.4416 96.7621C96.7762 97.1039 96.039 97.2823 95.291 97.2826H62.3113C63.0588 97.2826 63.7964 97.1038 64.4627 96.7625C65.1277 96.4212 65.7028 95.925 66.139 95.3174C66.5753 94.7099 66.8603 94.0061 66.9716 93.266C67.0828 92.526 67.0153 91.7697 66.7766 91.0609L38.1559 6.20903C37.8409 5.27432 37.2406 4.46197 36.4395 3.88637C36.042 3.6001 35.602 3.37884 35.1357 3.22883C34.6694 3.07882 34.1819 3.00256 33.6931 3.00256H66.6716C67.1616 3.00256 67.6479 3.07882 68.1154 3.22883C68.5817 3.37884 69.0217 3.60135 69.4205 3.88637C69.818 4.17264 70.1693 4.51891 70.4606 4.91269C70.7518 5.30647 70.9794 5.74399 71.1369 6.20903L99.7575 91.0609H99.7525Z" fill="url(#paint2_linear_64_16)"/>
</g>
</g>
<defs>
<linearGradient id="paint0_linear_64_16" x1="44.1376" y1="9.99045" x2="13.3856" y2="100.834" gradientUnits="userSpaceOnUse">
<stop stop-color="#114A8B"/>
<stop offset="1" stop-color="#0669BC"/>
</linearGradient>
<linearGradient id="paint1_linear_64_16" x1="53.7256" y1="52.3183" x2="46.6126" y2="54.7309" gradientUnits="userSpaceOnUse">
<stop stop-opacity="0.3"/>
<stop offset="0.1" stop-opacity="0.2"/>
<stop offset="0.3" stop-opacity="0.1"/>
<stop offset="0.6" stop-opacity="0.1"/>
<stop offset="1" stop-opacity="0"/>
</linearGradient>
<linearGradient id="paint2_linear_64_16" x1="49.8004" y1="7.34035" x2="83.5527" y2="97.2588" gradientUnits="userSpaceOnUse">
<stop stop-color="#3CCBF4"/>
<stop offset="1" stop-color="#2892DF"/>
</linearGradient>
</defs>
</svg>
