<svg width="36" height="36" viewBox="0 0 36 36" fill="none" xmlns="http://www.w3.org/2000/svg">
<path d="M18 30.75H10.5C6 30.75 3 28.5 3 23.25V12.75C3 7.5 6 5.25 10.5 5.25H25.5C30 5.25 33 7.5 33 12.75V17.25" stroke="#DFDFEC" stroke-width="1.5" stroke-miterlimit="10" stroke-linecap="round" stroke-linejoin="round"/>
<path d="M25.5 13.5L20.805 17.25C19.26 18.48 16.725 18.48 15.18 17.25L10.5 13.5" stroke="#DFDFEC" stroke-width="1.5" stroke-miterlimit="10" stroke-linecap="round" stroke-linejoin="round"/>
<path d="M28.815 22.1549L23.505 27.4649C23.295 27.6749 23.1 28.0649 23.055 28.3499L22.77 30.3749C22.665 31.1099 23.175 31.62 23.91 31.515L25.935 31.23C26.22 31.185 26.625 30.9899 26.82 30.7799L32.13 25.47C33.045 24.555 33.48 23.49 32.13 22.14C30.795 20.805 29.73 21.2399 28.815 22.1549Z" stroke="#DFDFEC" stroke-width="1.5" stroke-miterlimit="10" stroke-linecap="round" stroke-linejoin="round"/>
<path d="M28.05 22.9199C28.5 24.5399 29.76 25.7999 31.38 26.2499" stroke="#DFDFEC" stroke-width="1.5" stroke-miterlimit="10" stroke-linecap="round" stroke-linejoin="round"/>
</svg>
