<svg width="100" height="100" viewBox="0 0 100 100" fill="none" xmlns="http://www.w3.org/2000/svg">
<g id="github">
<g id="github_2">
<path id="Vector" d="M50 1C22.3892 1 -0.000244141 23.3855 -0.000244141 51.0002C-0.000244141 73.092 14.3263 91.834 34.1931 98.4456C36.6918 98.9083 37.6094 97.3609 37.6094 96.0402C37.6094 94.848 37.5627 90.909 37.5416 86.7311C23.6311 89.7557 20.6959 80.8317 20.6959 80.8317C18.4215 75.0523 15.1443 73.5159 15.1443 73.5159C10.608 70.4124 15.4863 70.476 15.4863 70.476C20.5073 70.8289 23.1511 75.6287 23.1511 75.6287C27.6105 83.2728 34.8479 81.0627 37.7012 79.7854C38.1498 76.5534 39.4458 74.348 40.8756 73.0994C29.7701 71.8347 18.0952 67.5474 18.0952 48.3889C18.0952 42.9303 20.0485 38.4697 23.2472 34.9682C22.728 33.7086 21.0167 28.6233 23.7315 21.7361C23.7315 21.7361 27.9301 20.3923 37.4851 26.8614C41.4732 25.7532 45.7507 25.198 50 25.1791C54.2492 25.198 58.5298 25.7532 62.5258 26.8614C72.0694 20.3923 76.2622 21.7361 76.2622 21.7361C78.9836 28.6233 77.2715 33.7086 76.7523 34.9682C79.9581 38.4697 81.898 42.9299 81.898 48.3889C81.898 67.5929 70.2012 71.8218 59.0675 73.0594C60.8607 74.6111 62.4587 77.6541 62.4587 82.3187C62.4587 89.0086 62.4007 94.3932 62.4007 96.0402C62.4007 97.3707 63.3007 98.9299 65.8355 98.4389C85.6912 91.8199 99.9998 73.0845 99.9998 51.0002C99.9998 23.3855 77.6135 1 50 1Z" fill="#161614"/>
<path id="Vector_2" d="M18.7264 72.2265C18.6166 72.4748 18.2252 72.5493 17.8696 72.3791C17.5068 72.2159 17.3029 71.8771 17.4206 71.6277C17.5284 71.3721 17.9198 71.3007 18.2817 71.4724C18.6452 71.6352 18.8523 71.9771 18.7264 72.2265ZM21.1859 74.421C20.9475 74.6421 20.4812 74.5394 20.1648 74.19C19.8377 73.8414 19.7766 73.3755 20.0185 73.1508C20.2644 72.93 20.7165 73.0332 21.0444 73.3822C21.3714 73.7347 21.4349 74.1978 21.1855 74.4214L21.1859 74.421ZM22.8733 77.2287C22.5667 77.4416 22.0655 77.242 21.7561 76.7974C21.4498 76.3531 21.4498 75.8197 21.7628 75.606C22.0733 75.3923 22.5667 75.5845 22.8804 76.0256C23.1862 76.4778 23.1862 77.0111 22.8729 77.2291L22.8733 77.2287ZM25.7266 80.4808C25.4524 80.7827 24.8689 80.7019 24.4415 80.2894C24.0047 79.8863 23.8827 79.3141 24.1576 79.0118C24.4348 78.709 25.0219 78.7941 25.4524 79.2032C25.8865 79.6055 26.0191 80.1819 25.7269 80.4808H25.7266ZM29.4143 81.5788C29.2939 81.9701 28.7316 82.1481 28.1653 81.9819C27.5998 81.8105 27.2296 81.3517 27.3438 80.956C27.4614 80.5619 28.0261 80.3764 28.5967 80.5545C29.1613 80.7251 29.5323 81.1803 29.4147 81.5788H29.4143ZM33.6118 82.0442C33.6259 82.4568 33.1455 82.7987 32.551 82.8062C31.953 82.8191 31.4695 82.4854 31.4632 82.0799C31.4632 81.6635 31.9326 81.3246 32.5302 81.3148C33.1247 81.3031 33.6118 81.6344 33.6118 82.0442ZM37.7348 81.8862C37.8061 82.2885 37.3928 82.7019 36.8027 82.8117C36.2223 82.9175 35.685 82.6693 35.6109 82.2705C35.5388 81.858 35.9599 81.445 36.5391 81.338C37.1305 81.2352 37.6595 81.4772 37.7348 81.8862Z" fill="#161614"/>
</g>
</g>
</svg>
