<svg width="100" height="100" viewBox="0 0 100 100" fill="none" xmlns="http://www.w3.org/2000/svg">
<g id="gitlab">
<g id="gitlab_2">
<path id="Vector" d="M49.9997 96.1175L68.4127 39.4487H31.5864L49.9993 96.1175H49.9997Z" fill="#E24329"/>
<path id="Vector_2" d="M49.9999 96.1171L31.5866 39.4482H5.78174L49.9999 96.1171Z" fill="#FC6D26"/>
<path id="Vector_3" d="M5.78169 39.4482L0.18637 56.6697C-0.0624154 57.4353 -0.0624497 58.26 0.186272 59.0256C0.434994 59.7913 0.919703 60.4585 1.57093 60.9317L49.9998 96.1174L5.7813 39.4486L5.78169 39.4482Z" fill="#FCA326"/>
<path id="Vector_4" d="M5.78174 39.4485H31.5866L20.4971 5.31709C19.9264 3.56078 17.4419 3.56117 16.8716 5.31709L5.78174 39.4485Z" fill="#E24329"/>
<path id="Vector_5" d="M49.9999 96.1171L68.4128 39.4482H94.218L49.9995 96.1171H49.9999Z" fill="#FC6D26"/>
<path id="Vector_6" d="M94.2178 39.4482L99.8131 56.6697C100.062 57.4354 100.062 58.2601 99.8131 59.0257C99.5643 59.7913 99.0795 60.4585 98.4282 60.9317L49.9998 96.1174L94.2178 39.4486V39.4482Z" fill="#FCA326"/>
<path id="Vector_7" d="M94.2181 39.4485H68.4128L79.5027 5.31709C80.0734 3.56078 82.5579 3.56117 83.1283 5.31709L94.2181 39.4485Z" fill="#E24329"/>
</g>
</g>
</svg>
