<svg width="100" height="100" viewBox="0 0 100 100" fill="none" xmlns="http://www.w3.org/2000/svg">
<g id="netlify2">
<g id="netlify2_2">
<path id="Vector" d="M62.8542 64.2795H55.9977L55.425 63.7069V47.6567C55.425 44.8012 54.3029 42.5878 50.8592 42.5105C49.087 42.464 47.0594 42.5105 44.8926 42.5956L44.5676 42.9284V49.4134V63.6992L43.9949 64.2718H37.1384L36.5657 63.6992V36.2808L37.1384 35.7081H52.5694C58.5669 35.7081 63.4269 40.5681 63.4269 46.5656V63.7069L62.8542 64.2795Z" fill="#014847"/>
<path id="Vector_2" d="M27.0237 79.4707H26.0795L21.3667 74.7578V73.8138L28.5715 66.609H33.5629L34.2284 67.2745V72.266L27.0237 79.4707Z" fill="#05BDBA"/>
<path id="Vector_3" d="M21.3667 26.1663V25.2222L26.0795 20.5093H27.0237L34.2284 27.714V32.7055L33.5629 33.3711H28.5715L21.3667 26.1663Z" fill="#05BDBA"/>
<path id="Vector_4" d="M27.9988 54.0026H0.572666L0 53.4299V46.5579L0.572666 45.9852H27.9988L28.5714 46.5579V53.4299L27.9988 54.0026Z" fill="#05BDBA"/>
<path id="Vector_5" d="M99.4275 54.0026H72.0012L71.4285 53.4299V46.5579L72.0012 45.9852H99.4275L100 46.5579V53.4299L99.4275 54.0026Z" fill="#05BDBA"/>
<path id="Vector_6" d="M46.0454 27.1414V6.57181L46.618 5.99915H53.4901L54.0628 6.57181V27.1414L53.4901 27.714H46.618L46.0454 27.1414Z" fill="#05BDBA"/>
<path id="Vector_7" d="M46.0454 93.4158V72.8464L46.618 72.2737H53.4901L54.0628 72.8464V93.4158L53.4901 93.9884H46.618L46.0454 93.4158Z" fill="#05BDBA"/>
</g>
</g>
</svg>
