<svg width="30" height="30" viewBox="0 0 30 30" fill="none" xmlns="http://www.w3.org/2000/svg">
<path d="M19.6511 19.5408L20.1949 20.0573L19.6511 19.5408ZM20.3343 18.8216L19.7905 18.305L20.3343 18.8216ZM23.9593 18.3185L23.5852 18.9685L23.9593 18.3185ZM26.8251 19.968L26.4509 20.618L26.8251 19.968ZM27.6326 25.1376L28.1764 25.6542L27.6326 25.1376ZM25.5017 27.381L24.958 26.8645L25.5017 27.381ZM23.5145 28.4446L23.5881 29.191L23.5145 28.4446ZM8.7231 21.7128L9.2669 21.1963L8.7231 21.7128ZM2.25332 7.40871C2.23112 6.99509 1.87781 6.67778 1.4642 6.69998C1.05058 6.72218 0.733272 7.07548 0.755473 7.4891L2.25332 7.40871ZM10.7861 10.2076L11.3299 10.7241L10.7861 10.2076ZM11.2163 9.75467L11.7601 10.2712L11.2163 9.75467ZM11.4514 5.53965L12.0638 5.10667L11.4514 5.53965ZM9.55995 2.86442L8.94755 3.29741V3.29741L9.55995 2.86442ZM4.34844 1.89645C4.06318 2.19678 4.07539 2.67149 4.37572 2.95676C4.67605 3.24202 5.15077 3.22981 5.43603 2.92948L4.34844 1.89645ZM13.5947 16.5838L14.1385 16.0673L13.5947 16.5838ZM13.1957 26.401C13.5464 26.6214 14.0094 26.5157 14.2298 26.165C14.4502 25.8143 14.3445 25.3513 13.9938 25.1309L13.1957 26.401ZM19.5926 27.4547C19.1872 27.3698 18.7897 27.6296 18.7048 28.0351C18.6199 28.4405 18.8798 28.838 19.2852 28.9229L19.5926 27.4547ZM20.1949 20.0573L20.8781 19.3381L19.7905 18.305L19.1073 19.0243L20.1949 20.0573ZM23.5852 18.9685L26.4509 20.618L27.1992 19.318L24.3334 17.6685L23.5852 18.9685ZM27.0888 24.6211L24.958 26.8645L26.0455 27.8975L28.1764 25.6542L27.0888 24.6211ZM9.2669 21.1963C3.38845 15.0074 2.37943 9.75828 2.25332 7.40871L0.755473 7.4891C0.899802 10.1781 2.04382 15.7698 8.17931 22.2293L9.2669 21.1963ZM11.3299 10.7241L11.7601 10.2712L10.6725 9.23815L10.2423 9.6911L11.3299 10.7241ZM12.0638 5.10667L10.1723 2.43144L8.94755 3.29741L10.839 5.97263L12.0638 5.10667ZM10.7861 10.2076C10.2423 9.6911 10.2416 9.69183 10.2409 9.69257C10.2407 9.69282 10.24 9.69357 10.2395 9.69409C10.2385 9.69512 10.2375 9.69618 10.2365 9.69727C10.2345 9.69946 10.2324 9.70178 10.2301 9.70422C10.2257 9.70912 10.2209 9.71453 10.2157 9.72047C10.2054 9.73235 10.1936 9.74635 10.1809 9.76252C10.1553 9.79485 10.1253 9.83587 10.0933 9.88595C10.029 9.98633 9.95693 10.1223 9.89505 10.2962C9.76968 10.6485 9.69495 11.132 9.78616 11.7545C9.96624 12.9835 10.7848 14.7146 13.051 17.1004L14.1385 16.0673C11.9721 13.7865 11.3864 12.3295 11.2703 11.537C11.2134 11.1488 11.2676 10.9132 11.3082 10.7991C11.3293 10.7398 11.3495 10.7058 11.3567 10.6944C11.3604 10.6886 11.361 10.6884 11.3571 10.6934C11.3551 10.6959 11.352 10.6997 11.3475 10.7048C11.3453 10.7074 11.3427 10.7103 11.3398 10.7135C11.3383 10.7151 11.3368 10.7168 11.3351 10.7186C11.3343 10.7195 11.3335 10.7204 11.3326 10.7213C11.3322 10.7218 11.3315 10.7225 11.3313 10.7227C11.3306 10.7234 11.3299 10.7241 10.7861 10.2076ZM13.051 17.1004C15.3126 19.4814 16.9674 20.3581 18.1649 20.5526C18.7752 20.6517 19.2535 20.5707 19.6033 20.4327C19.7752 20.3649 19.9088 20.2863 20.0066 20.2169C20.0554 20.1823 20.0952 20.15 20.1264 20.1227C20.142 20.109 20.1555 20.0965 20.1669 20.0855C20.1726 20.08 20.1778 20.0749 20.1824 20.0702C20.1848 20.0678 20.187 20.0656 20.1891 20.0634C20.1901 20.0624 20.1911 20.0613 20.1921 20.0603C20.1926 20.0598 20.1933 20.059 20.1935 20.0588C20.1942 20.0581 20.1949 20.0573 19.6511 19.5408C19.1073 19.0243 19.108 19.0236 19.1087 19.0229C19.1089 19.0226 19.1096 19.0219 19.11 19.0215C19.1109 19.0205 19.1118 19.0197 19.1126 19.0188C19.1143 19.017 19.1159 19.0154 19.1175 19.0139C19.1205 19.0108 19.1233 19.008 19.1258 19.0056C19.1308 19.0008 19.1346 18.9974 19.1372 18.995C19.1425 18.9904 19.1431 18.9904 19.1388 18.9934C19.1305 18.9993 19.1026 19.0177 19.053 19.0373C18.9598 19.0741 18.7551 19.1288 18.4054 19.072C17.6828 18.9547 16.3094 18.3529 14.1385 16.0673L13.051 17.1004ZM10.1723 2.43144C8.77726 0.4583 6.01188 0.14516 4.34844 1.89645L5.43603 2.92948C6.39612 1.91869 8.05372 2.0332 8.94755 3.29741L10.1723 2.43144ZM24.958 26.8645C24.4983 27.3484 23.9823 27.6448 23.4408 27.6983L23.5881 29.191C24.5929 29.0918 25.4216 28.5544 26.0455 27.8975L24.958 26.8645ZM11.7601 10.2712C13.081 8.88058 13.1828 6.68927 12.0638 5.10667L10.839 5.97263C11.5694 7.00563 11.4714 8.39715 10.6725 9.23815L11.7601 10.2712ZM26.4509 20.618C27.8852 21.4436 28.181 23.4712 27.0888 24.6211L28.1764 25.6542C29.9608 23.7755 29.4456 20.6109 27.1992 19.318L26.4509 20.618ZM20.8781 19.3381C21.5784 18.6008 22.6697 18.4415 23.5852 18.9685L24.3334 17.6685C22.8322 16.8044 20.9791 17.0537 19.7905 18.305L20.8781 19.3381ZM13.9938 25.1309C12.4903 24.1861 10.8958 22.9112 9.2669 21.1963L8.17931 22.2293C9.88992 24.0302 11.5808 25.3862 13.1957 26.401L13.9938 25.1309ZM23.4408 27.6983C22.5887 27.7824 21.2526 27.8023 19.5926 27.4547L19.2852 28.9229C21.1154 29.3061 22.6068 29.2879 23.5881 29.191L23.4408 27.6983Z" fill="white"/>
</svg>
